<svg id="Capa_1" data-name="Capa 1" xmlns="http://www.w3.org/2000/svg" xmlns:xlink="http://www.w3.org/1999/xlink" viewBox="0 0 524 479"><defs><style>.cls-1{stroke-miterlimit:10;fill:url(#Degradado_sin_nombre_13);stroke:url(#Degradado_sin_nombre_13-2);}</style><linearGradient id="Degradado_sin_nombre_13" x1="78.9" y1="250.41" x2="456" y2="250.41" gradientUnits="userSpaceOnUse"><stop offset="0" stop-color="#c26ca9"/><stop offset="0.58" stop-color="#ea7b1f"/><stop offset="0.94" stop-color="#336ab2"/></linearGradient><linearGradient id="Degradado_sin_nombre_13-2" x1="78.4" y1="250.41" x2="456.5" y2="250.41" xlink:href="#Degradado_sin_nombre_13"/></defs><path class="cls-1" d="M454.5,209.43c-5.25-11.8-35.39-24.9-81.26-23.59-69.48,2-90.42,34.07-106.15,34.07-19.66-1.31-41.94-36.69-117.95-35.38-11.79-1.31-60.28,7.86-69.45,26.21-2.63,11.79,0,61.59,28.83,90.43,15.72,15.72,91.73,23.59,123.19,1.31,23.59-17,28.83-47.18,35.38-47.18S280.2,286.75,309,306.41c10.48,7.86,81.25,19.66,115.32-3.93C445.32,290.68,461.05,225.16,454.5,209.43ZM178.63,305.75c-14.45.76-55-5.24-62.9-17C93.45,258.57,89.51,223.19,97.38,214c9.17-10.49,44.56-14.42,61.59-14.42s81.25,7.86,91.74,39.32C257.26,258.57,228.43,303.13,178.63,305.75Zm235.89-13.1c-13.1,9.17-61.59,24.9-103.53-2.62-32.76-27.52-27.26-51.26-26.21-55,6.56-23.59,66.79-35.38,83.88-35.38s52.42,1.31,68.14,14.42C444.67,221.88,444.67,267.75,414.52,292.65Z"/><circle cx="178.63" cy="249.4" r="30.14"/></svg>