<?xml version="1.0" encoding="utf-8"?>
<!-- Generator: Adobe Illustrator 26.0.2, SVG Export Plug-In . SVG Version: 6.00 Build 0)  -->
<svg version="1.1" id="Capa_1" xmlns="http://www.w3.org/2000/svg" xmlns:xlink="http://www.w3.org/1999/xlink" x="0px" y="0px"
	 viewBox="0 0 285.52 226.14" style="enable-background:new 0 0 285.52 226.14;" xml:space="preserve">
<style type="text/css">
	.st0{fill:#F6F4F5;}
	.st1{fill:#474DBA;}
	.st2{fill:#80C4A3;}
	.st3{fill:#D34F50;}
	.st4{fill:#0FC09C;}
	.st5{fill:#CBD1D9;}
	.st6{fill:#8FC2CA;}
	.st7{fill:#E8B046;}
	.st8{fill:#4348A7;}
	.st9{fill:#10AC8E;}
	.st10{fill:#D09E42;}
	.st11{fill:#E6C4B0;}
	.st12{fill:#3C465A;}
	.st13{fill:#FCFCFC;}
</style>
<g>
	<path class="st0" d="M229.41,156.68c0.61,1.29,1.89,0.76,2.84,0.93c3.11,0.56,6.17,1.17,8.85,2.99c2.39,1.63,2.23,3.32-0.3,4.75
		c-1.14,0.64-2.38,1.06-3.46,1.8c-0.65,0.44-1.31,0.98-1.24,1.8c0.06,0.77,0.78,1.1,1.46,1.41c1.63,0.73,3.35,0.93,5.09,1.12
		c2.35,0.25,4.75,0.24,7.02,1.07c0.29,0.11,0.61,0.2,0.86,0.38c0.4,0.28,0.9,0.57,0.88,1.12c-0.02,0.63-0.58,0.86-1.08,1.09
		c-2.22,1.04-4.64,0.91-6.98,1.2c-2.17,0.26-4.38,0.38-6.32,1.54c-0.73,0.44-1.54,0.87-1.54,1.88c0,1.04,0.97,1.24,1.63,1.58
		c2.27,1.19,4.84,1.28,7.29,1.76c2.11,0.41,4.27,0.56,6.3,1.35c0.38,0.15,0.75,0.31,1.11,0.48c0.5,0.24,0.98,0.53,0.96,1.18
		c-0.02,0.71-0.56,1.02-1.12,1.21c-1.53,0.52-3.08,1.02-4.69,1.19c-3.97,0.42-7.96,0.59-11.94,0.85c-4.43,0.29-8.86,0.66-13.3,0.85
		c-2.86,0.12-5.73,0.37-8.6,0.52c-6.1,0.32-12.2,0.65-18.31,0.83c-5.53,0.16-11.06,0.28-16.58,0.54c-7.4,0.36-14.79-0.09-22.17,0.26
		c-9.79,0.45-19.57,0.36-29.35,0.15c-9.97-0.22-19.93,0.13-29.89-0.25c-5.23-0.2-10.46,0.09-15.67-0.25
		c-6.49-0.42-12.99,0.06-19.46-0.27c-5.85-0.29-11.76-0.27-17.49-1.84c-1.86-0.51-3.61-1.24-5.11-2.38
		c-2.26-1.73-3.31-5.03,0.64-7.84c1.82-1.29,3.91-1.99,6.06-2.53c3.3-0.83,6.73-1.08,9.98-2.15c0.13-0.04,0.28-0.01,0.4-0.07
		c0.86-0.43,2.02-0.63,1.84-1.98c-0.16-1.18-1.02-1.75-2.09-2.01c-1-0.24-2.02-0.41-3.04-0.55c-2.28-0.3-3.86-1.51-4.5-3.69
		c-0.76-2.58,0.17-4.86,2.22-6.46c3.08-2.41,6.67-3.23,10.45-3.39c1.8-0.08,3.57-0.47,5.38-0.3c1.52,0.15,3.03,0.4,4.57,0.27
		c0.6,3.45,1.03,6.9,1.18,10.41c0.18,4.12,0.66,8.22,1.01,12.32c0.05,0.63-0.22,1.38,0.91,1.4c0.98,0.02,1.63-0.13,1.78-1.26
		c0.43-3.15,0.91-6.29,1.36-9.44c0.75-5.21,1.49-10.41,2.23-15.62c0.64,1.32,1.16,2.65,1.49,4.02c0.35,1.47,1.23,2.88,0.85,4.46
		c-0.39,1.64-0.26,3.31-0.45,4.96c-0.39,3.38-0.51,6.8-0.77,10.19c-0.03,0.44-0.01,0.69,0.47,0.77c0.53,0.08,1.09,0.11,1.58,0.29
		c1.03,0.39,1.28-0.08,1.49-1c1.01-4.42,2.12-8.81,3.14-13.22c0.65-2.83,1.8-5.57,1.64-8.56c2.92-0.09,5.83,0.01,8.76-0.21
		c4.16-0.31,8.35,0.06,12.53-0.29c2.55-0.21,5.13-0.04,7.7-0.04c0.33,2.11,1.03,4.2,0.51,6.38c-1.01,4.24-2.06,8.48-3.01,12.73
		c-0.67,2.97-1.69,5.88-1.84,8.96c-0.02,0.44-0.2,0.9,0.35,1.18c0.8,0.41,1.58,0.87,2.39,1.26c0.74,0.36,1.2-0.25,1.64-0.63
		c0.47-0.4-0.09-0.76-0.31-0.99c-0.76-0.8-0.72-1.55-0.27-2.52c3.5-7.56,6.94-15.14,10.42-22.7c0.4-0.87,0.66-1.74,0.76-2.71
		c0.19-1.97,0.5-3.93,0.76-5.9c0.91,2.87,1.79,5.69,2.26,8.63c1.11,7.07,2.32,14.12,3.41,21.19c0.46,2.96,0.36,2.97,3.33,3.64
		c0.04,0.01,0.09,0.02,0.13,0.04c0.94,0.44,1.17-0.44,1.54-0.91c0.44-0.57-0.24-0.82-0.54-1.01c-0.95-0.61-1.18-1.34-1.06-2.48
		c0.32-3.23,0.47-6.48,0.67-9.72c0.31-4.91,0.6-9.81,0.91-14.72c6.3-0.07,12.6,0.21,18.88-0.27c0.39-0.03,0.83,0.08,1.1-0.34
		c2.23,0.8,4.42,1.69,6.74,2.2c0.08,2.78,0.69,5.49,1.04,8.24c0.75,5.93,1.55,11.86,2.47,17.77c-0.39,0.37-0.77,0.75-1.18,1.09
		c-0.52,0.43-0.25,0.61,0.13,1c1.1,1.15,2.02,0.24,3.03-0.11c1.07-0.37,0.7-1.19,0.72-1.9c-0.01-5.23,0.42-10.45,0.31-15.68
		c-0.07-3.33,0-6.66,0.01-10c0.82-0.16,1.63-0.1,2.45-0.03c0.08,0.21,0.18,0.41,0.24,0.63c1.97,6.53,3.96,13.05,5.89,19.59
		c0.48,1.62,1.18,3.2,1.17,4.95c-0.26,0.36-0.53,0.73-0.79,1.09c-0.15,0.21-0.43,0.49-0.07,0.66c0.75,0.34,1.35,1.06,2.43,0.4
		c1.24-0.76,1.89-1.53,1.36-2.98c0.13-2.05-0.46-4-0.77-5.99c-0.93-6.11-1.82-12.23-2.73-18.34c0.58-0.03,1.16-0.07,1.73-0.09
		c3.64-0.14,7.21-0.56,10.42-2.5c0.09,0.73,0.66,0.6,1.13,0.61c4.03,0.09,8.06,0.18,12.09,0.28c0.44,0.01,0.88,0.18,1.32,0.17
		c1.7-0.03,3.45,0.52,5.1-0.32c0.27,1.77,0.55,3.55,0.82,5.32c1.05,7.03,2.12,14.05,3.1,21.09c0.13,0.93,0.46,1.05,1.26,1.08
		c0.91,0.03,1.15-0.35,1.2-1.18c0.26-4.14,0.52-8.27,0.87-12.4c0.2-2.36,0.25-4.75,0.89-6.99c1.01,4.38,2.03,8.8,3.07,13.22
		c0.07,0.29-0.13,0.77,0.48,0.79c1.02,0.03,1.84-0.66,1.9-1.74c0.16-3.06,0.33-6.12,0.4-9.18
		C228.25,162.77,228.83,159.73,229.41,156.68z M73.24,183.11c-0.17,0.5,0.13,0.71,0.67,0.81c1.28,0.23,2.55,0.49,3.82,0.75
		c0.46,0.1,0.88,0.17,1.07-0.44c0.17-0.53,0.17-0.93-0.39-1.25c-0.71-0.39-1.35-0.89-2.07-1.26
		C74.88,180.96,73.35,181.62,73.24,183.11z M81.69,179.8c-0.93-0.33-0.93,0.36-1.17,0.81c-0.33,0.62,0.08,0.77,0.5,0.97
		c1.22,0.58,2.42,1.19,3.65,1.75c0.22,0.1,0.53,0.48,0.79,0.01c0.16-0.28,0.36-0.58,0.07-0.86
		C84.38,181.33,83.58,179.66,81.69,179.8z M219.21,184.13c-1.24-0.3-1.96,0.67-2.88,1.16c-0.29,0.16-0.75,0.27-0.58,0.75
		c0.17,0.47,0.52,0.69,1.05,0.58c1.14-0.23,2.29-0.4,3.42-0.68c0.28-0.07,1,0.1,0.81-0.57c-0.13-0.47-0.2-1.11-0.89-1.2
		C219.83,184.14,219.52,184.15,219.21,184.13z M227.9,178.22c-0.17-0.46,0.34-1.15-0.48-1.33c-0.98-0.22-2.04,0.64-2.04,1.67
		c0,0.57,0.12,1.15,0.2,1.72c0.09,0.65,0.2,1.14,1.14,1.05c0.83-0.08,0.89-0.48,0.93-1.12C227.69,179.54,227.82,178.88,227.9,178.22
		z"/>
	<path class="st1" d="M80.08,75.69c3.49,0.34,6.99,0.63,10.48,1.04c0.85,0.1,1.01-0.05,1.1-0.89c0.72-6.26,3.67-11.11,9.27-14.19
		c0.9-0.5,1.88-0.85,2.98-1.35c-2.42-2.45-4.78-4.83-7.13-7.22c0-0.34,0.18-0.51,0.52-0.52c2.31,2.34,4.64,4.66,6.93,7.03
		c0.4,0.41,0.76,0.49,1.3,0.42c6.88-0.88,11.69,1.76,14.62,8.01c0.06,0.12,0.12,0.24,0.18,0.36c0.16,0.3,0.24,0.77,0.74,0.56
		c0.44-0.19,0.31-0.56,0.17-0.92c-0.56-1.39-1.3-2.67-2.19-3.87c-1.34-1.8-2.98-3.26-5.02-4.22c-0.55-0.26-0.84-0.46-0.57-1.21
		c2.99-8.44,11.25-15.55,21.37-14.56c7.41,0.72,12.49,4.9,15.89,11.33c0.91,1.72,1.46,3.57,1.94,5.45c0.21,0.82-0.03,1.1-0.74,1.36
		c-2.4,0.86-4.15,2.48-5.28,4.77c-0.17,0.34-0.54,0.75,0.07,1.01c0.48,0.2,0.61-0.25,0.77-0.55c2.26-4.22,5.97-5.29,10.4-4.78
		c0.49,0.06,0.99,0.06,1.48,0.14c2.1,0.35,2.1,0.36,2.91-1.52c0.67-1.57,1.34-3.15,2.01-4.72c0.3-0.01,0.47,0.17,0.6,0.4
		c-0.8,1.91-1.59,3.82-2.43,5.71c-0.28,0.63-0.17,0.92,0.48,1.19c6.01,2.55,9.8,7,11.32,13.35c0.19,0.82,0.77,0.79,1.32,0.86
		c2.54,0.32,5.09,0.62,7.64,0.93c0,0.25-0.01,0.5-0.01,0.76c-0.17-0.03-0.34-0.06-0.51-0.09c-0.1-0.02-0.19-0.03-0.29-0.05
		c-1.63-0.2-3.27-0.42-4.9-0.61c-0.88-0.1-1.98-0.51-2.6-0.15c-0.76,0.45,0.13,1.61-0.12,2.45c-0.01,0.04-0.02,0.09-0.02,0.13
		c-0.32,0.43-0.3,0.87-0.03,1.32c-0.02,0.19-0.03,0.38-0.05,0.56c-0.46,0.84-1.05,1.63-1.36,2.52c-1,2.97-3.18,4.76-5.87,6.02
		c-1.9,0.89-3.91,1.5-5.96,2.03c-2.92,0.76-5.84,1.26-8.86,1.36c-4.99,0.17-9.97-0.39-14.96-0.27c-0.84-0.85-1.92-1.02-3.05-1.13
		c-1.76-0.17-3.47,0.39-5.22,0.32c-1.38-0.05-2.74-0.48-4.14-0.26c-0.1-0.08-0.2-0.23-0.31-0.24c-2.17-0.21-4.34-0.38-6.5-0.62
		c-1.89-0.21-3.81-0.23-5.66-0.8c-0.39-0.4-0.87-0.29-1.34-0.26c-0.53-0.12-1.02,0.15-1.58,0.08c-3.94-0.49-7.87-1.01-11.72-2.03
		c0.11-0.14,0.21-0.29,0.33-0.41c0.29-0.28,0.67-0.56,0.31-1c-0.33-0.4-0.64,0.02-0.94,0.14c-0.45,0.17-0.82,0.56-1.34,0.56
		c-2.96-3.07-4.52-6.77-4.84-11c-0.05-0.62-0.12-0.96-0.87-1.02c-3.58-0.31-7.16-0.68-10.74-1.03
		C80.04,76.17,80.06,75.93,80.08,75.69z"/>
	<path class="st2" d="M232.41,86.37c0.47,3.89,0.95,7.77,1.39,11.66c0.16,1.39,0.1,2.74-0.43,4.11c-1.51,3.91-2.88,7.87-4.34,11.79
		c-0.32,0.86-0.31,1.58,0.12,2.42c2.12,4.15,3.28,8.67,4.91,13.02c2.53,6.75,5.3,13.41,8.14,20.04c0.64,1.5,0.43,2.02-1.16,2.47
		c-3.16,0.89-6.4,0.93-9.65,0.92c-0.56,0-1.2-0.19-1.55,0.5c-0.13-0.53-0.54-0.51-0.96-0.51c-5.04,0.04-10.08,0.04-15.11-0.23
		c-3.43-0.01-6.7-0.68-9.76-2.27c-1.43-0.75-1.49-0.87-0.55-2.15c1.2-1.63,2.34-3.25,2.71-5.35c1.59-9.07,3.4-18.09,5.32-27.1
		c0.16-0.76-0.04-1.05-0.63-1.36c-2.27-1.2-4.5-2.47-6.78-3.65c-0.88-0.46-1.4-0.99-1.42-2.06c-0.02-1.12-0.29-2.23-0.38-3.34
		c-0.26-3.31-1.02-6.58-0.94-9.92c0.59,0.06,1.13-0.15,1.68-0.32c0.78,0.02,0.88,0.59,1.04,1.18c0.82,3.04,1.64,6.07,2.49,9.1
		c0.15,0.54,0.21,1.17,0.93,1.36c1.87,0.49,3.73,1,5.59,1.5c0.85,0.41,1.72,0.73,2.69,0.53c0.77,0.38,1.56,0.08,2.35,0.07
		c0.76,0.66,1.5,0.65,2.23-0.05c0.97,0.33,1.68,0.08,2.12-0.89c0.12-0.27,0.3-0.54,0.66-0.56c0.15,0.59,0.49,0.87,1.14,0.8
		c0.57-0.06,1.16-0.01,1.74,0c1.7,0,2.15-0.54,1.78-2.2c-0.13-0.57-0.34-1.09-0.76-1.53c-0.57-0.6-0.92-1.31-0.75-2.18
		c1.01-1.27,2.29-2.37,2.48-4.15c0.43-3.95,0.91-7.9,1.38-11.84C230.88,86.19,231.73,85.35,232.41,86.37z"/>
	<path class="st3" d="M69.95,150.36c-1.17-0.03-2.34-0.1-3.51-0.06c-0.9,0.04-1.27-0.22-1.31-1.18c-0.23-5.09-0.27-10.2-0.88-15.24
		c-0.59-4.84,0.6-9.27,2.03-13.73c0.35-1.07,0.11-1.58-0.88-2.11c-4.17-2.23-8.28-4.56-12.43-6.83c-0.67-0.37-0.96-0.68-0.72-1.56
		c1.28-4.73,2.47-9.48,3.68-14.23c0.15-0.57,0.29-1.08,1.05-0.76c0.9,0.32,1.8,0.64,2.69,0.96c0.27,0.22,0.12,0.48,0.1,0.74
		c-0.31,3.53-0.61,7.07-0.94,10.6c-0.08,0.86,0.12,1.27,1.08,1.45c2.25,0.41,4.48,0.94,6.69,1.5c1.8,0.46,3.54,0.49,5.26-0.26
		c0.88,0.26,1.78,0.41,2.71,0.3c0.83-0.1,1.23-0.42,0.83-1.28c2.11-1.03,4.36-0.67,6.56-0.55c1.4,0.08,2.17-0.45,2.92-1.57
		c2.8-4.18,5.71-8.28,8.54-12.43c0.44-0.64,0.81-0.88,1.47-0.37c0.47,0.66,1.01,1.26,1.76,1.63c0.79,0.62,0.66,1.26,0.21,2.09
		c-2.12,3.97-4.25,7.94-6.2,12c-1.28,2.65-2.87,4.83-5.77,5.81c-0.42,0.14-0.77,0.47-1.19,0.64c-0.59,0.24-0.67,0.57-0.45,1.15
		c1.44,3.8,2.34,7.74,3.12,11.72c1.29,6.53,2.59,13.06,3.85,19.6c0.41,2.12,0.37,2.13-1.58,2.18
		C82.41,150.26,76.18,150.33,69.95,150.36z"/>
	<path class="st1" d="M207.29,77.74c3.06-1.05,6.1-2.16,9.18-3.13c0.95-0.3,0.93-0.6,0.58-1.4c-4.32-9.96,0.6-21.01,10.91-24.24
		c4.94-1.55,9.77-1.08,14.26,1.69c-0.6,0.66,0.09,0.95,0.4,1.31c1.58,1.83,2.51,3.97,3.17,6.28c0.78,2.75,0.64,5.51,0.21,8.26
		c-0.3,1.88-0.57,3.88-1.81,5.39c-1.19,1.45-2.24,3.06-3.74,4.24c-0.1-0.28-0.21-0.56-0.32-0.84c0.08-1.26,0.16-2.52,0.24-3.78
		c0.4,0.01,0.81,0.03,1.21,0.02c1.94-0.07,3.3-1.63,3.16-3.6c-0.14-1.84-1.77-3.13-3.67-2.93c-0.74,0.08-1.34,0.5-1.99,0.79
		c-0.12-0.19-0.23-0.39-0.35-0.57c-0.68-1.01-1.34-1.53-2.73-0.81c-1.81,0.95-4,0.29-5.29-1.42c-0.59-0.77-1.08-0.76-1.81-0.43
		c-1.52,0.69-2.69,1.78-3.61,3.15c-1.95,2.88-2.86,6.16-3.67,9.49c-0.22,0.9,0.37,0.8,0.88,0.92c4.15,0.96,8.29,1.93,12.44,2.89
		c-0.1,1.21-1.1,0.81-1.76,0.95c-2.12,0.46-4.22,0.93-6.45,0.52c-1.65-0.3-3.26-0.74-4.9-1.09c-1.42-0.93-2.43-2.24-3.34-3.63
		c-0.45-0.68-0.8-0.85-1.61-0.56c-3.07,1.1-6.19,2.1-9.28,3.13C207.37,78.22,207.3,78,207.29,77.74z M234.93,63.2
		c3.08,0.01,5.61-2.47,5.65-5.53c0.04-3.09-2.53-5.67-5.66-5.67c-3.13,0-5.67,2.55-5.64,5.68C229.31,60.74,231.81,63.2,234.93,63.2z
		"/>
	<path class="st4" d="M53.84,89.96c-5.48-3.55-7.98-8.72-7.66-15.12C46.7,64.5,56.55,57.12,66.65,59.34c0.21,0.05,0.4,0.17,0.6,0.26
		c0.21,0.32,0.54,0.25,0.85,0.24c0,0-0.03-0.02-0.03-0.02c1.7,1.71,3.69,3.17,4.75,5.46c0.25,0.54,0.4,0.98-0.13,1.4
		c-2.35,0.61-4.7,1.21-7.04,1.83c-0.68,0.18-1.1-0.17-1.55-0.57c-1.74-1.57-3.49-3.13-5.24-4.68c-0.23-0.2-0.47-0.49-0.82-0.36
		c-0.38,0.14-0.25,0.53-0.27,0.83c-0.18,2.24-0.41,4.49-0.48,6.74c-0.03,1.05-0.45,1.62-1.33,2.1c-1.94,1.06-3.83,2.2-5.73,3.32
		c-0.3,0.18-0.75,0.29-0.72,0.71c0.03,0.43,0.5,0.46,0.82,0.59c2.17,0.89,4.33,1.79,6.52,2.63c0.67,0.26,1,0.66,1.14,1.34
		c0.46,2.2,0.96,4.4,1.44,6.6c0.09,0.43-0.02,1.03,0.47,1.18c0.51,0.15,0.72-0.45,1-0.76c1.59-1.84,3.15-3.7,4.72-5.55
		c0.3,0,0.62,0.06,0.84-0.23c0.56,0.02,1.11,0.05,1.67,0.07c0.24,0.22,0.52,0.16,0.8,0.14c0.18,0.02,0.35,0.04,0.53,0.06
		c0.42,0.36,0.86,0.3,1.31,0.07c0.48-0.08,0.94,0.03,1.39,0.19c-0.93,1.9-2.43,3.32-4.13,4.47c-2.53,1.71-5.26,2.89-8.43,3.03
		c-1.8,0.08-3.56-0.18-5.34-0.2c0,0,0.01,0.01,0.01,0.01C54.1,90.14,53.97,90.05,53.84,89.96z"/>
	<path class="st5" d="M69.95,150.36c6.23-0.03,12.46-0.11,18.69,0.22c0.1,2,0.2,3.99,0.3,5.99c0.16,2.99-0.99,5.73-1.64,8.56
		c-1.02,4.41-2.13,8.81-3.14,13.22c-0.21,0.92-0.46,1.39-1.49,1c-0.49-0.19-1.05-0.21-1.58-0.29c-0.48-0.07-0.5-0.33-0.47-0.77
		c0.26-3.4,0.38-6.81,0.77-10.19c0.19-1.65,0.06-3.32,0.45-4.96c0.38-1.58-0.5-2.99-0.85-4.46c-0.33-1.38-0.85-2.71-1.49-4.02
		c-0.74,5.21-1.48,10.41-2.23,15.62c-0.45,3.15-0.94,6.29-1.36,9.44c-0.15,1.13-0.8,1.28-1.78,1.26c-1.14-0.02-0.86-0.77-0.91-1.4
		c-0.35-4.11-0.84-8.21-1.01-12.32c-0.15-3.51-0.58-6.97-1.18-10.41C70.66,154.68,70.3,152.52,69.95,150.36z"/>
	<path class="st6" d="M183.18,79.86c0-0.25,0.01-0.5,0.01-0.76c0.87-1.8,1.49-3.71,2.89-5.24c2.67-2.92,5.92-4.41,9.89-4.25
		c0.54,0.02,1.08,0.02,1.61,0.03c0.25,0.08,0.5,0.16,0.76,0.24c1.14,0.32,2.3,0.58,3.26,1.33c0,0.4,0.27,0.64,0.49,0.93
		c3.07,3.88,3.72,8.14,2.03,12.78c-0.14,0.38-0.17,0.81-0.66,0.92c-0.01-0.63-0.02-1.26-0.38-1.83c-2.19-3.53-4.36-7.05-6.54-10.58
		c-0.35-0.57-0.72-0.68-1.33-0.3c-1.94,1.23-3.91,2.42-5.88,3.6c-0.76,0.45-0.78,0.88-0.3,1.63c1.59,2.46,3.05,5.01,4.65,7.46
		c0.57,0.87,0.69,1.31-0.32,1.99c-1.45,0.98-1.34,2.95,0.07,3.53c1.18,0.49,2.21,0.14,3.05-0.78c0.78-0.86,0.95-1.75,0.27-2.81
		c-1.45-2.28-2.77-4.65-4.25-6.91c-0.54-0.82-0.33-1.17,0.38-1.58c1.05-0.61,2.13-1.2,3.11-1.92c0.74-0.53,1.08-0.3,1.47,0.36
		c0.9,1.51,1.82,3.01,2.77,4.49c0.4,0.63,0.64,1.01-0.28,1.52c-1.1,0.61-1.32,1.92-0.75,2.81c0.65,1.03,1.92,1.27,3.1,0.59
		c0.23-0.13,0.45-0.3,0.67-0.45c0,0.31,0.01,0.62-0.22,0.89c-1.81,2.09-3.86,3.81-6.6,4.55c-0.46,0.12-0.97,0.17-1.33,0.55
		c-1.26-0.04-0.71,1.14-1.12,1.67c-3.42-0.36-6.04-2.07-8.11-4.73C183.35,86.72,182.74,83.42,183.18,79.86z"/>
	<path class="st1" d="M213.77,152.55c5.03,0.27,10.07,0.28,15.11,0.23c0.42,0,0.83-0.02,0.96,0.51c-0.14,1.13-0.29,2.26-0.43,3.38
		c-0.57,3.05-1.16,6.09-1.24,9.21c-0.08,3.06-0.24,6.12-0.4,9.18c-0.06,1.08-0.88,1.77-1.9,1.74c-0.61-0.02-0.41-0.5-0.48-0.79
		c-1.04-4.42-2.06-8.84-3.07-13.22c-0.63,2.24-0.69,4.63-0.89,6.99c-0.36,4.13-0.61,8.27-0.87,12.4c-0.05,0.83-0.29,1.21-1.2,1.18
		c-0.8-0.02-1.13-0.15-1.26-1.08c-0.98-7.04-2.05-14.06-3.1-21.09c-0.26-1.78-0.55-3.55-0.82-5.32
		C214.05,154.78,213.91,153.66,213.77,152.55z"/>
	<path class="st2" d="M97.3,52.56c-0.34,0.01-0.51,0.18-0.52,0.52c-1.65,0.54-3.11,1.51-4.91,1.76c-5.87,0.83-11.28-3.23-12.2-9.04
		c-1.03-6.49,4.07-12.58,10.8-12.4c4.44,0.12,7.84,2.23,9.67,6.37c1.88,4.24,1.11,8.16-1.86,11.68
		C97.96,51.83,97.63,52.19,97.3,52.56z M93.81,38.46c-0.06-0.55,0.36-1.34-0.83-1.38c-1.14-0.03-1.08,0.66-1.08,1.4
		c0,0.32-0.04,0.63-0.05,0.95c-0.02,1.19-0.75,1.35-1.72,1.24c-1.09-0.13-0.58-0.92-0.61-1.45c-0.02-0.4,0.14-0.8,0.19-1.2
		c0.06-0.47,0.07-0.96-0.62-0.92c-0.53,0.03-1.21-0.23-1.28,0.73c-0.06,0.89,0.01,1.99-0.48,2.59c-0.54,0.67-1.7,0.22-2.58,0.25
		c-0.8,0.03-0.96,0.43-0.99,1.12c-0.03,0.86,0.53,0.78,1.07,0.78c0.36,0,0.72,0,1.08,0c1.36,0.02,1.45,0.2,1.15,1.51
		c-0.14,0.61-0.46,0.68-0.95,0.68c-0.68-0.01-1.35-0.01-2.03,0.01c-0.75,0.03-0.78,0.62-0.84,1.16c-0.08,0.67,0.36,0.71,0.85,0.72
		c0.81,0.02,1.83-0.23,2.37,0.17c0.74,0.55-0.03,1.58,0.03,2.41c0.04,0.5-0.22,1.13,0.68,1.15c0.7,0.02,1.24-0.03,1.23-0.96
		c-0.01-0.62,0.21-1.25,0.22-1.87c0.02-0.98,0.67-0.89,1.32-0.89c0.69,0,0.99,0.31,0.9,1.01c-0.06,0.45-0.07,0.9-0.09,1.35
		c-0.02,0.54-0.62,1.28,0.55,1.39c0.93,0.09,1.29-0.3,1.38-1.19c0.26-2.48,0.28-2.47,2.77-2.56c0.05,0,0.09-0.01,0.14,0
		c0.95,0.15,1-0.56,1.07-1.18c0.09-0.77-0.49-0.72-0.99-0.73c-0.41-0.01-0.81,0.01-1.22,0c-0.61-0.01-1.3,0.18-1.25-0.88
		c0.04-0.87,0.25-1.39,1.24-1.29c0.49,0.05,0.99-0.03,1.49,0.02c0.79,0.07,1.13-0.19,1.14-1.05c0.01-0.93-0.54-0.86-1.15-0.87
		C93.73,40.62,93.73,40.61,93.81,38.46z"/>
	<path class="st7" d="M191.78,54.74c-2.91-2.09-4.5-5.04-5-8.47c-1.01-6.91,2.76-13.04,9.31-15.24c3.21-1.08,6.45-1.04,9.58,0.44
		c0.11,0.07,0.21,0.14,0.32,0.22c0,0-0.02-0.03-0.02-0.03c0.09,0.16,0.15,0.33,0.26,0.46c3.55,3.99,4.75,8.59,3.19,13.71
		c-0.51,1.69-1.03,3.57-2.8,4.57c-0.02-0.54-0.06-1.08-0.06-1.62c-0.01-4.68,0-9.37-0.01-14.05c0-0.6,0.17-1.33-0.85-1.33
		c-3.51,0.01-7.03,0.01-10.54,0c-0.63,0-0.89,0.26-0.89,0.89c0.03,6.26,0.05,12.52,0.07,18.78c0.4,0.57,0.99,0.31,1.49,0.31
		c2.47,0.03,4.94,0.01,7.4,0.01c-2.68,1.73-5.47,2.54-8.6,1.94c-0.82-0.16-1.65-0.46-2.52-0.31c0,0,0.02,0.01,0.02,0.01
		C192.01,54.92,191.9,54.83,191.78,54.74z"/>
	<path class="st8" d="M240.14,75.3c0.11,0.28,0.21,0.57,0.32,0.84c1.5-1.19,2.55-2.79,3.74-4.24c1.24-1.51,1.51-3.51,1.81-5.39
		c0.43-2.75,0.57-5.51-0.21-8.26c-0.66-2.31-1.59-4.44-3.17-6.28c-0.31-0.36-1-0.65-0.4-1.31c5.03,2.89,7.94,7.31,8.6,12.98
		c1.11,9.47-4.67,17.45-13.92,19.6c-1.27,0.29-2.57,0.45-3.88,0.43c-0.11-0.07-0.22-0.17-0.33-0.19c-0.65-0.11-1.56,0.26-1.53-1.01
		c0.01-0.25-0.65-0.69-0.95,0.07c-0.11,0.28-0.31,0.53-0.47,0.8c-2.92-0.73-5.68-1.79-7.9-3.93c1.63,0.35,3.25,0.79,4.9,1.09
		c2.23,0.41,4.33-0.06,6.45-0.52c0.66-0.14,1.66,0.26,1.76-0.95c1.1,0.21,2.22,0.36,3.29,0.67c0.84,0.24,1.14-0.06,1.27-0.81
		C239.71,77.69,239.93,76.5,240.14,75.3z"/>
	<path class="st9" d="M54.22,90.22c1.78,0.01,3.53,0.28,5.34,0.2c3.17-0.14,5.9-1.32,8.43-3.03c1.7-1.15,3.2-2.56,4.13-4.47
		c0.58,0.02,1.16,0.04,1.75,0.06c0.35,0.02,0.81,0.26,0.99-0.12c0.22-0.48-0.17-0.81-0.57-1.05c-0.12-0.22-0.01-0.55-0.32-0.69
		c0,0-0.06-0.09-0.06-0.09c0.06-0.46-0.4-0.71-0.47-1.11c0.52-0.01,0.7-0.41,0.79-0.8c0.54-2.27,1.21-4.58,0.78-6.91
		c-0.28-1.53-0.14-3.27-1.38-4.54c0.4-1.03-0.2-1.09-0.96-0.99c0.54-0.42,0.38-0.86,0.13-1.4c-1.05-2.29-3.04-3.75-4.75-5.46
		c5.92,1.79,9.53,5.83,11.33,11.63c0.43,1.38,0.44,2.83,0.68,4.24c-0.02,0.24-0.04,0.48-0.06,0.72c-0.27,3.77-1.4,7.23-3.87,10.16
		c-4.18,4.96-9.56,6.79-15.91,6.04c-0.11-0.48-0.21-0.96-0.32-1.44c-0.05-0.24-0.18-0.43-0.43-0.43c-0.26,0.01-0.4,0.22-0.37,0.46
		c0.17,1.36-0.59,0.9-1.27,0.68c-0.38-0.12-0.78-0.19-1.17-0.28C55.87,91.13,54.92,90.9,54.22,90.22z"/>
	<path class="st10" d="M192.11,55c0.87-0.15,1.7,0.16,2.52,0.31c3.13,0.6,5.92-0.22,8.6-1.94c-2.47,0-4.94,0.02-7.4-0.01
		c-0.5-0.01-1.09,0.26-1.49-0.31c3.18,0.02,6.35,0.06,9.53,0.07c3.3,0.01,2.76,0.34,2.75-2.73c1.78-1,2.29-2.88,2.8-4.57
		c1.56-5.12,0.36-9.72-3.19-13.71c-0.11-0.13-0.18-0.31-0.26-0.46c4.1,1.59,6.57,4.71,7.7,8.8c2.11,7.65-2.41,15.14-10.11,17.04
		c-1.36,0.34-2.74,0.5-4.14,0.36c-0.34-0.02-0.68-0.03-1.03-0.05C196.12,57.26,193.88,56.66,192.11,55z"/>
	<path class="st3" d="M164.86,57.06c-0.13-0.24-0.3-0.42-0.6-0.4c-2.45-1.83-3.93-4.16-3.79-7.33c0.18-4.23,3.88-7.64,8.16-7.54
		c4.37,0.1,7.82,3.64,7.81,8.01c-0.01,4.33-3.46,7.82-7.74,7.94C167.35,57.76,166.12,57.37,164.86,57.06z M168.42,53.61
		C168.42,53.61,168.42,53.61,168.42,53.61c1.35-0.01,2.7-0.01,4.05,0c0.81,0,1.28-0.34,1.28-1.2c0-1.76,0-3.51,0-5.27
		c0-0.92-0.91-1.41-1.04-2.35c-0.08-0.6-2.72-0.1-2.82,0.6c-0.1,0.69-0.52,0.62-0.96,0.62c-1.49,0-2.97,0.02-4.46-0.01
		c-0.88-0.01-1.37,0.3-1.36,1.24c0.02,1.71,0.01,3.42,0.01,5.14c0,0.84,0.42,1.23,1.25,1.23C165.71,53.61,167.07,53.61,168.42,53.61
		z"/>
	<path class="st2" d="M194.82,92.67c0.36-0.38,0.86-0.43,1.33-0.55c2.74-0.74,4.79-2.46,6.6-4.55c0.23-0.26,0.22-0.57,0.22-0.89
		l0,0.01c0.09-0.1,0.18-0.2,0.27-0.29l-0.02,0.02c0.25-0.11,0.29-0.32,0.28-0.56l-0.03,0c0.49-0.11,0.53-0.54,0.66-0.92
		c1.68-4.64,1.04-8.9-2.03-12.78c-0.23-0.28-0.5-0.53-0.49-0.93c2.79,1.39,4.48,3.75,5.68,6.52c0.01,0.26,0.08,0.48,0.32,0.61
		c0.01,0.27-0.01,0.54,0.04,0.8c1.09,5.14-0.44,9.36-4.43,12.72c-0.4-0.14-1.02-1.09-1.15-0.16c-0.16,1.11-1,1.33-1.54,1.93
		c-1.16,0.21-2.25,0.72-3.45,0.71C194.87,94.42,194.87,94.42,194.82,92.67z"/>
	<path class="st11" d="M56.69,91.59c0.39,0.09,0.79,0.16,1.17,0.28c0.68,0.22,1.44,0.68,1.27-0.68c-0.03-0.24,0.11-0.45,0.37-0.46
		c0.26-0.01,0.38,0.19,0.43,0.43c0.1,0.48,0.21,0.96,0.32,1.44c0.22,0.53,0.21,1.01-0.18,1.5c-0.34,0.42-0.5,0.96-0.4,1.53
		c-0.9-0.32-1.8-0.64-2.69-0.96C56.86,93.64,56.53,92.64,56.69,91.59z"/>
	<path class="st1" d="M198.39,57.8c0.35,0.01,0.69,0.03,1.03,0.05c-0.59,0.66-0.42,1.5-0.48,2.26c-0.24,3.26-0.4,6.53-0.59,9.79
		c-0.25-0.08-0.5-0.16-0.76-0.24C197.86,65.69,198.12,61.74,198.39,57.8z"/>
	<path class="st11" d="M229.74,83.34c0.16-0.27,0.36-0.52,0.47-0.8c0.3-0.76,0.96-0.32,0.95-0.07c-0.03,1.27,0.88,0.9,1.53,1.01
		c0.12,0.02,0.22,0.13,0.33,0.19c-0.18,0.9-0.65,1.74-0.63,2.69c-0.67-1.02-1.52-0.18-2.29-0.22
		C229.74,85.24,229.5,84.32,229.74,83.34z"/>
	<path class="st9" d="M68.1,59.84c-0.31,0.01-0.63,0.08-0.85-0.24C67.55,59.61,67.87,59.55,68.1,59.84z"/>
	<path class="st9" d="M53.84,89.96c0.13,0.09,0.27,0.18,0.4,0.27C54.1,90.14,53.97,90.05,53.84,89.96z"/>
	<path class="st10" d="M205.99,31.67c-0.11-0.07-0.21-0.14-0.32-0.22C205.82,31.46,205.95,31.5,205.99,31.67z"/>
	<path class="st10" d="M191.78,54.74c0.12,0.09,0.23,0.18,0.35,0.27C192.01,54.92,191.9,54.83,191.78,54.74z"/>
	<path class="st7" d="M159.93,155.15c-1-0.86-0.79-1.67-0.16-2.73c1.59-2.68,1.75-5.75,1.99-8.76c0.59-7.65,1.51-15.25,3.88-22.59
		c0.07-0.2,0.2-0.41-0.04-0.72c-0.42,0.11-0.92,0.15-1.34,0.36c-1.84,0.92-3.43,0.48-4.97-0.73c-0.45-0.36-0.76-0.65-0.82-1.27
		c-0.4-3.9-0.88-7.79-1.24-11.69c-0.11-1.16-0.74-2.35-0.01-3.53c1.08,0.11,2.11-0.47,3.19-0.26c0.92,3.38,1.83,6.75,2.75,10.13
		c0.4,1.46,0.4,1.46,1.68,0.55c0.7-0.49,1.37-1.02,2.1-1.46c2.37-1.43,4.28-3.59,7.06-4.35c1.66,1.16,3.44,1.41,5.35,0.74
		c-0.35,3.46-1.08,6.81-2.45,10.03c-1.54,3.6-3.04,7.21-4.51,10.84c-0.69,1.72-0.94,3.49,0.08,5.2c0.35,0.58,0.79,1.31,1.5,1.22
		c1.73-0.23,2.05,0.79,2.23,2.11c0.26,1.88,0.72,2.41,2.39,2.5c1.32,0.07,2.56,0.18,3.76,0.85c0.66,0.37,1.52,0.32,1.36-0.87
		c-0.15-1.09,0.43-1.55,1.36-1.82c0.82-0.23,1.62-0.54,2.42-0.81c0.37,0.44,0.44,1,0.51,1.51c0.77,5.11,2.98,9.38,6.99,12.72
		c1.27,1.05,1.08,1.77-0.46,2.83c-3.21,1.93-6.78,2.36-10.42,2.5c-0.58,0.02-1.16,0.06-1.73,0.09c-2.25,0-4.5,0-6.74,0
		c-0.82-0.08-1.64-0.14-2.45,0.03c-2.17-0.14-4.35-0.27-6.52-0.41C164.35,156.84,162.15,155.95,159.93,155.15z"/>
	<path class="st12" d="M139.9,153.86c0.02,0.63,0.03,1.26,0.05,1.9c-0.3,4.91-0.6,9.81-0.91,14.72c-0.2,3.24-0.35,6.49-0.67,9.72
		c-0.11,1.14,0.11,1.87,1.06,2.48c0.3,0.19,0.98,0.44,0.54,1.01c-0.37,0.47-0.6,1.35-1.54,0.91c-0.04-0.02-0.09-0.03-0.13-0.04
		c-2.97-0.66-2.88-0.68-3.33-3.64c-1.09-7.07-2.29-14.13-3.41-21.19c-0.46-2.94-1.34-5.76-2.26-8.63c-0.26,1.97-0.57,3.93-0.76,5.9
		c-0.09,0.96-0.36,1.84-0.76,2.71c-3.47,7.57-6.92,15.15-10.42,22.7c-0.45,0.97-0.49,1.72,0.27,2.52c0.22,0.23,0.78,0.59,0.31,0.99
		c-0.45,0.38-0.91,0.99-1.64,0.63c-0.81-0.39-1.59-0.85-2.39-1.26c-0.55-0.28-0.37-0.75-0.35-1.18c0.16-3.08,1.18-5.99,1.84-8.96
		c0.96-4.25,2.01-8.49,3.01-12.73c0.52-2.18-0.18-4.27-0.51-6.38c-0.52-4.53-1.14-9.04-1.92-13.54c0.57-0.52,1.23-0.89,1.96-1.15
		c4.59-1.64,9.35-1.82,14.12-1.44c2.21,0.18,4.29,0.16,6.35-0.66c0.48,4.78,0.97,9.57,1.45,14.35
		C139.89,153.68,139.89,153.77,139.9,153.86z"/>
	<path class="st5" d="M166.67,157.35c2.17,0.14,4.35,0.27,6.52,0.41c-0.01,3.33-0.08,6.67-0.01,10c0.1,5.23-0.33,10.45-0.31,15.68
		c-0.9-0.03-1.79-0.06-2.69-0.08c-0.92-5.91-1.72-11.84-2.47-17.77C167.36,162.84,166.74,160.13,166.67,157.35z"/>
	<path class="st5" d="M175.64,157.74c2.25,0,4.5,0,6.74,0c0.91,6.12,1.79,12.23,2.73,18.34c0.3,1.99,0.89,3.95,0.77,5.99
		c-0.98,0.28-1.96,0.55-2.93,0.83c0.01-1.74-0.69-3.32-1.17-4.95c-1.93-6.54-3.92-13.06-5.89-19.59
		C175.82,158.15,175.72,157.94,175.64,157.74z"/>
	<path class="st12" d="M73.24,183.11c0.11-1.49,1.64-2.15,3.1-1.38c0.71,0.38,1.36,0.87,2.07,1.26c0.57,0.31,0.56,0.72,0.39,1.25
		c-0.19,0.61-0.6,0.53-1.07,0.44c-1.27-0.26-2.54-0.52-3.82-0.75C73.37,183.83,73.07,183.61,73.24,183.11z"/>
	<path class="st12" d="M81.69,179.8c1.89-0.14,2.69,1.54,3.84,2.68c0.29,0.28,0.08,0.58-0.07,0.86c-0.26,0.47-0.57,0.09-0.79-0.01
		c-1.23-0.56-2.43-1.17-3.65-1.75c-0.42-0.2-0.84-0.35-0.5-0.97C80.76,180.15,80.76,179.47,81.69,179.8z"/>
	<path class="st12" d="M219.2,184.13c0.31,0.02,0.63,0.01,0.94,0.05c0.69,0.09,0.76,0.73,0.89,1.2c0.19,0.67-0.52,0.5-0.81,0.57
		c-1.12,0.28-2.28,0.45-3.42,0.68c-0.53,0.11-0.89-0.11-1.05-0.58c-0.17-0.49,0.29-0.6,0.58-0.75
		C217.24,184.8,217.97,183.83,219.2,184.13z"/>
	<path class="st12" d="M227.9,178.22c-0.09,0.66-0.21,1.33-0.25,1.99c-0.03,0.64-0.09,1.03-0.93,1.12c-0.94,0.1-1.04-0.4-1.14-1.05
		c-0.08-0.57-0.2-1.15-0.2-1.72c0-1.03,1.05-1.89,2.04-1.67C228.24,177.07,227.73,177.76,227.9,178.22z"/>
	<path class="st12" d="M182.95,182.9c0.98-0.28,1.96-0.55,2.93-0.83c0.53,1.45-0.12,2.22-1.36,2.98c-1.09,0.67-1.68-0.06-2.43-0.4
		c-0.36-0.16-0.09-0.45,0.07-0.66C182.42,183.62,182.68,183.26,182.95,182.9z"/>
	<path class="st12" d="M170.18,183.36c0.9,0.03,1.79,0.06,2.69,0.08c-0.01,0.72,0.35,1.54-0.72,1.9c-1.01,0.35-1.92,1.26-3.03,0.11
		c-0.37-0.39-0.64-0.57-0.13-1C169.41,184.11,169.79,183.72,170.18,183.36z"/>
	<path class="st8" d="M174.66,83.44c-0.63,8.14-6.09,14.67-14.3,17.12c-0.67-0.09-0.86-0.74-1.3-1.09
		c-0.28-0.22-0.34-0.87-0.89-0.57c-0.5,0.27-0.24,0.76-0.1,1.08c0.41,0.94-0.04,1.08-0.83,1.06c-0.81-0.02-1.62,0.04-2.42,0.06
		c-2.36-0.27-4.72-0.54-7.08-0.81c-0.21-0.06-0.42-0.16-0.64-0.19c-0.98-0.15-2.29,0.04-1.63-1.71c0.09-0.24-0.23-0.47-0.48-0.57
		c-0.34-0.14-0.46,0.12-0.58,0.37c-0.26,0.51-0.52,1.01-0.78,1.52c-2.52-0.43-5.1-0.5-7.6-1.09c0.04-0.44,0.31-0.74,0.62-1.01
		c0.77-0.67,1.07-1.52,1.01-2.52c4.99-0.12,9.97,0.44,14.96,0.27c3.02-0.1,5.94-0.6,8.86-1.36c2.05-0.53,4.05-1.14,5.96-2.03
		c2.7-1.26,4.87-3.05,5.87-6.02C173.6,85.07,174.2,84.28,174.66,83.44z"/>
	<path class="st12" d="M137.65,95.1c0.07,1-0.23,1.85-1.01,2.52c-0.31,0.27-0.58,0.57-0.62,1.01c-0.76,0.15-0.86,0.87-1.09,1.4
		c-1.01,2.3-2.67,3.5-5.64,2.87c-0.42-0.24-0.83-0.5-1.26-0.73c-1.37-0.74-2.84-1.12-4.39-1.07c-1.52,0.05-2,0.6-1.98,2.07
		c0.01,0.85,0.03,1.7,0.04,2.55c-3.5-2.24-4.87-5.6-2.74-9.23c1-1.18,2.39-1.43,3.81-1.7c0.84-0.16,1.81,0.01,2.46-0.76
		c1.4-0.21,2.76,0.21,4.14,0.26c1.75,0.07,3.46-0.49,5.22-0.32C135.73,94.08,136.81,94.24,137.65,95.1z"/>
	<path class="st8" d="M108.1,94.98c-2.84-0.42-5.54-1.28-8.06-2.68c-0.59-0.45-1.19-0.89-1.77-1.35c-0.25-0.2-0.69-0.41-0.15-0.78
		c3.85,1.02,7.78,1.54,11.72,2.03c0.57,0.07,1.05-0.2,1.58-0.08c0.29,2.15,0.29,2.15-1.89,2.55
		C109.05,94.76,108.58,94.88,108.1,94.98z"/>
	<path class="st8" d="M125.23,94.03c-0.66,0.78-1.62,0.6-2.46,0.76c-1.41,0.27-2.81,0.52-3.81,1.7c-1.79-0.21-3.58-0.43-5.37-0.64
		c0.12-1.25-0.69-2.28-0.83-3.47c1.84,0.57,3.76,0.59,5.66,0.8c2.16,0.24,4.33,0.4,6.5,0.62C125.03,93.8,125.13,93.95,125.23,94.03z
		"/>
	<path class="st11" d="M98.12,90.18c-0.54,0.37-0.1,0.58,0.15,0.78c0.58,0.46,1.18,0.9,1.77,1.35c-1.17,0.55-1.43,2.03-2.63,2.56
		c-0.28,0.12-0.52,0.34-0.77,0.52c-0.75-0.36-1.29-0.96-1.76-1.63c0.19-1.04,0.42-2.09,0.57-3.14c0.09-0.65,0.82-0.66,1.03-1.15
		c0.52,0,0.89-0.39,1.34-0.56c0.3-0.11,0.61-0.54,0.94-0.14c0.36,0.44-0.02,0.72-0.31,1C98.33,89.89,98.23,90.04,98.12,90.18z"/>
	<path class="st11" d="M112.76,92.38c0.14,1.19,0.95,2.22,0.83,3.47c-0.77,0.29-1.07,0.93-1.2,1.68c-0.97-0.02-1.94-0.05-2.91-0.07
		c-0.46-0.83-0.93-1.65-1.39-2.48c0.48-0.1,0.96-0.22,1.44-0.31c2.17-0.4,2.17-0.4,1.89-2.55
		C111.89,92.09,112.38,91.99,112.76,92.38z"/>
	<path class="st8" d="M174.74,81.55c-0.01,0.44-0.02,0.88-0.03,1.32C174.44,82.43,174.41,81.98,174.74,81.55z"/>
	<path class="st6" d="M182.67,79.77c-0.1-0.02-0.19-0.03-0.29-0.05C182.48,79.74,182.58,79.75,182.67,79.77z"/>
	<path class="st12" d="M213.07,108.16c0.04-0.82,0.15-1.58,0.81-2.2c0.74-0.69,0.55-1.61,0.31-2.41c-0.68-2.25,0.12-3.92,1.9-5.23
		c0.34-0.25,0.37-0.57,0.51-0.89c0.85-2,2.96-2.57,4.63-1.17c1.14,0.96,2.25,1.89,3.71,2.35c0.94,0.3,1.19,1.16,1.28,2.05
		c0.05,0.49,0.04,0.99,0.06,1.48c-0.17,0.87,0.18,1.59,0.75,2.18c0.42,0.44,0.64,0.97,0.76,1.53c0.37,1.66-0.08,2.2-1.78,2.2
		c-0.58,0-1.17-0.06-1.74,0c-0.65,0.07-0.99-0.21-1.14-0.8c0.01-0.84-0.47-1.34-1.16-1.69c0.2-1.99-0.09-3.59-2.42-4.26
		c-2.01-0.58-3.68,0.45-3.84,2.62c-0.09,1.22,0.44,2.28,0.87,3.36c0.07,0.66,0.02,1.26-0.81,1.4
		C214.79,108.89,213.92,108.57,213.07,108.16z"/>
	<path class="st11" d="M216.57,107.29c-0.44-1.08-0.96-2.13-0.87-3.36c0.15-2.17,1.83-3.2,3.84-2.62c2.33,0.67,2.62,2.27,2.42,4.26
		c0.12,0.79-0.44,1.22-0.92,1.67c-0.43,0.41-0.86,0.79-0.7,1.47c-0.73,0.7-1.47,0.72-2.23,0.05
		C218.18,107.66,217.13,107.73,216.57,107.29z"/>
	<path class="st11" d="M203.22,91.87c0.02,1.06,0.12,2.12-0.2,3.15c-0.55,0.17-1.08,0.38-1.68,0.32c-0.18-0.61-0.79-1.01-0.82-1.69
		c0.54-0.61,1.39-0.82,1.54-1.93C202.2,90.79,202.82,91.73,203.22,91.87z"/>
	<path class="st0" d="M220.33,108.71c-0.16-0.68,0.27-1.07,0.7-1.47c0.48-0.45,1.04-0.88,0.92-1.67c0.69,0.36,1.17,0.86,1.16,1.69
		c-0.36,0.02-0.54,0.28-0.66,0.56C222.02,108.79,221.3,109.04,220.33,108.71z"/>
	<path class="st0" d="M216.57,107.29c0.56,0.44,1.62,0.37,1.54,1.48c-0.78,0.01-1.58,0.3-2.35-0.07
		C216.59,108.54,216.64,107.95,216.57,107.29z"/>
	<path class="st11" d="M71.84,109.66c0.17-0.33,0.94-0.16,0.74-0.7c-0.19-0.52-0.85-0.46-1.32-0.63c-0.02-0.18-0.01-0.36-0.05-0.54
		c-0.31-1.4-1.22-3.02-0.79-4.13c0.45-1.16,2.45-1.19,3.75-1.77c0.04-0.02,0.09-0.02,0.13-0.04c1.09-0.64,2.17-0.79,3.23,0.07
		c0.03,1.97,0.24,4-1.42,5.54c-0.36,0.33-0.78,0.64-0.74,1.22c0.39,0.86,0,1.18-0.83,1.28C73.62,110.07,72.73,109.92,71.84,109.66z"
		/>
	<path class="st13" d="M240.14,75.3c-0.21,1.19-0.42,2.39-0.63,3.58c-0.13,0.74-0.43,1.05-1.27,0.81c-1.07-0.31-2.19-0.45-3.29-0.67
		c-4.15-0.97-8.29-1.94-12.44-2.89c-0.51-0.12-1.1-0.02-0.88-0.92c0.8-3.33,1.72-6.61,3.67-9.49c0.92-1.37,2.1-2.46,3.61-3.15
		c0.73-0.33,1.22-0.34,1.81,0.43c1.3,1.71,3.48,2.37,5.29,1.42c1.38-0.72,2.04-0.21,2.73,0.81c0.13,0.19,0.24,0.38,0.35,0.57
		c-1.47,2.67-1.19,3.94,1.29,5.72C240.3,72.79,240.22,74.04,240.14,75.3z"/>
	<path class="st13" d="M234.93,63.2c-3.12-0.01-5.62-2.46-5.65-5.52c-0.02-3.13,2.51-5.68,5.64-5.68c3.12,0,5.7,2.58,5.66,5.67
		C240.54,60.73,238.01,63.21,234.93,63.2z"/>
	<path class="st7" d="M240.38,71.53c-2.48-1.78-2.76-3.04-1.29-5.72c0.65-0.29,1.25-0.71,1.99-0.79c1.9-0.2,3.53,1.09,3.67,2.93
		c0.15,1.97-1.21,3.53-3.16,3.6C241.19,71.56,240.78,71.53,240.38,71.53z M240.7,69.34c-0.04,0.35-0.18,0.74,0.37,0.84
		c0.41,0.07,0.59-0.16,0.63-0.52c0.06-0.72,0.49-0.73,1.05-0.6c0.31,0.07,0.52-0.1,0.56-0.43c0.03-0.25-0.06-0.49-0.31-0.52
		c-0.77-0.07-0.82-0.53-0.71-1.14c0.05-0.29-0.07-0.53-0.4-0.59c-0.34-0.06-0.53,0.15-0.58,0.43c-0.11,0.64-0.35,0.98-1.07,0.68
		c-0.3-0.12-0.51,0.14-0.57,0.43c-0.07,0.32,0.12,0.53,0.43,0.57C240.62,68.55,240.97,68.7,240.7,69.34z"/>
	<path class="st7" d="M72.68,66.68c0.76-0.1,1.36-0.03,0.96,0.99c-0.17,0.2-0.34,0.4-0.51,0.59c-0.18,0.14-0.22,0.34-0.19,0.55
		l0.01-0.01c-1.32,1.42-1.94,3.28-3.07,4.82c-0.77,1.05-1.11,2.05,0.09,3.09c1.48,1.28,2.26,3.21,3.94,4.31c0,0,0.06,0.09,0.06,0.09
		c0.04,0.26-0.01,0.56,0.32,0.69c0.4,0.24,0.79,0.58,0.57,1.05c-0.18,0.38-0.64,0.14-0.99,0.12c-0.58-0.03-1.16-0.04-1.75-0.06
		c-0.45-0.16-0.9-0.28-1.39-0.19c-0.44-0.02-0.87-0.05-1.31-0.07c-0.18-0.02-0.35-0.04-0.53-0.06c-0.24-0.22-0.52-0.19-0.8-0.14
		c-0.56-0.02-1.11-0.05-1.67-0.07c-0.32-0.06-0.64-0.15-0.84,0.23c-1.57,1.85-3.13,3.71-4.72,5.55c-0.27,0.32-0.49,0.91-1,0.76
		c-0.49-0.15-0.38-0.75-0.47-1.18c-0.48-2.2-0.98-4.4-1.44-6.6c-0.14-0.68-0.47-1.08-1.14-1.34c-2.19-0.84-4.35-1.74-6.52-2.63
		c-0.32-0.13-0.79-0.16-0.82-0.59c-0.03-0.42,0.42-0.53,0.72-0.71c1.91-1.12,3.8-2.26,5.73-3.32c0.88-0.48,1.29-1.05,1.33-2.1
		c0.07-2.25,0.31-4.49,0.48-6.74c0.02-0.29-0.11-0.68,0.27-0.83c0.35-0.13,0.59,0.16,0.82,0.36c1.75,1.56,3.5,3.11,5.24,4.68
		c0.45,0.4,0.87,0.76,1.55,0.57C67.98,67.89,70.33,67.29,72.68,66.68z"/>
	<path class="st9" d="M69.43,82.66c0.44,0.02,0.87,0.05,1.31,0.07C70.29,82.96,69.84,83.02,69.43,82.66z"/>
	<path class="st9" d="M68.1,82.46c0.29-0.05,0.57-0.08,0.8,0.14C68.62,82.62,68.33,82.68,68.1,82.46z"/>
	<path class="st9" d="M65.59,82.62c0.19-0.38,0.52-0.29,0.84-0.23C66.21,82.68,65.89,82.61,65.59,82.62z"/>
	<path class="st3" d="M202.97,86.68c-0.22,0.15-0.44,0.32-0.67,0.45c-1.18,0.68-2.45,0.44-3.1-0.59c-0.57-0.89-0.35-2.2,0.75-2.81
		c0.92-0.51,0.68-0.89,0.28-1.52c-0.95-1.48-1.87-2.98-2.77-4.49c-0.39-0.66-0.73-0.9-1.47-0.36c-0.98,0.71-2.05,1.31-3.11,1.92
		c-0.71,0.41-0.92,0.76-0.38,1.58c1.48,2.26,2.8,4.63,4.25,6.91c0.68,1.07,0.51,1.95-0.27,2.81c-0.84,0.92-1.87,1.28-3.05,0.78
		c-1.4-0.59-1.52-2.55-0.07-3.53c1.01-0.68,0.89-1.12,0.32-1.99c-1.6-2.45-3.06-5-4.65-7.46c-0.48-0.74-0.46-1.17,0.3-1.63
		c1.97-1.18,3.94-2.37,5.88-3.6c0.61-0.39,0.98-0.27,1.33,0.3c2.18,3.53,4.36,7.06,6.54,10.58c0.35,0.57,0.37,1.2,0.38,1.83
		c0,0,0.03,0,0.03,0c-0.23,0.12-0.29,0.32-0.28,0.56c0,0,0.02-0.02,0.02-0.02C203.14,86.49,203.05,86.59,202.97,86.68L202.97,86.68z
		"/>
	<path class="st11" d="M194.08,96.21c-0.12-0.62-0.25-1.25-0.38-1.87c0.41-0.53-0.15-1.71,1.12-1.67c0.05,1.76,0.05,1.76,2.25,1.69
		c-0.14,0.63-0.28,1.26-0.43,1.88C195.79,96.23,194.93,96.22,194.08,96.21z"/>
	<path class="st13" d="M93.81,38.46c-0.08,2.15-0.08,2.16,2.12,2.21c0.61,0.01,1.16-0.06,1.15,0.87c-0.01,0.85-0.35,1.11-1.14,1.05
		c-0.49-0.04-1,0.03-1.49-0.02c-0.99-0.09-1.2,0.42-1.24,1.29c-0.05,1.06,0.64,0.87,1.25,0.88c0.41,0.01,0.81,0,1.22,0
		c0.5,0.01,1.09-0.05,0.99,0.73c-0.07,0.62-0.12,1.32-1.07,1.18c-0.04-0.01-0.09,0-0.14,0c-2.5,0.08-2.52,0.08-2.77,2.56
		c-0.09,0.89-0.45,1.28-1.38,1.19c-1.17-0.11-0.58-0.85-0.55-1.39c0.02-0.45,0.03-0.9,0.09-1.35c0.09-0.7-0.21-1.01-0.9-1.01
		c-0.64,0-1.3-0.09-1.32,0.89c-0.01,0.63-0.23,1.25-0.22,1.87c0.01,0.93-0.53,0.98-1.23,0.96c-0.9-0.02-0.64-0.65-0.68-1.15
		c-0.07-0.83,0.71-1.86-0.03-2.41c-0.54-0.4-1.56-0.15-2.37-0.17c-0.49-0.01-0.93-0.05-0.85-0.72c0.06-0.55,0.09-1.13,0.84-1.16
		c0.68-0.03,1.35-0.02,2.03-0.01c0.49,0,0.81-0.06,0.95-0.68c0.3-1.31,0.21-1.49-1.15-1.51c-0.36-0.01-0.72,0-1.08,0
		c-0.55,0-1.11,0.08-1.07-0.78c0.03-0.69,0.19-1.09,0.99-1.12c0.88-0.03,2.04,0.42,2.58-0.25c0.49-0.6,0.41-1.7,0.48-2.59
		c0.07-0.97,0.75-0.71,1.28-0.73c0.69-0.04,0.67,0.45,0.62,0.92c-0.05,0.4-0.2,0.8-0.19,1.2c0.02,0.53-0.49,1.33,0.61,1.45
		c0.97,0.11,1.71-0.04,1.72-1.24c0-0.32,0.04-0.63,0.05-0.95c0-0.74-0.06-1.44,1.08-1.4C94.17,37.12,93.75,37.91,93.81,38.46z
		 M90.21,42.59c-1.18-0.23-1.14,0.65-1.23,1.4c-0.12,1.02,0.63,0.85,1.24,0.9c1.06,0.1,1.1-0.58,1.16-1.36
		C91.45,42.6,90.94,42.5,90.21,42.59z"/>
	<path class="st12" d="M206.61,50.38c0.01,3.07,0.55,2.74-2.75,2.73c-3.18-0.01-6.35-0.04-9.53-0.07
		c-0.02-6.26-0.04-12.52-0.07-18.78c0-0.63,0.26-0.89,0.89-0.89c3.51,0.01,7.03,0.01,10.54,0c1.02,0,0.85,0.73,0.85,1.33
		c0.01,4.68,0,9.37,0.01,14.05C206.55,49.3,206.59,49.84,206.61,50.38z M194.82,42.94c0,2.43,0.04,4.87-0.02,7.3
		c-0.02,0.85,0.24,1.06,1.06,1.04c3.02-0.05,6.04-0.05,9.06,0c0.83,0.01,1.06-0.22,1.05-1.05c-0.04-4.91-0.04-9.82,0-14.74
		c0.01-0.83-0.22-1.08-1.06-1.06c-3.02,0.05-6.04,0.05-9.06,0c-0.84-0.01-1.07,0.26-1.05,1.07
		C194.85,37.98,194.82,40.46,194.82,42.94z"/>
	<path class="st4" d="M73.14,68.27c0.17-0.2,0.34-0.4,0.51-0.59c1.24,1.27,1.1,3,1.38,4.54c0.42,2.33-0.24,4.64-0.78,6.91
		c-0.09,0.39-0.27,0.78-0.79,0.8c-0.9-1.39-1.78-2.79-2.7-4.16c-0.39-0.58-0.22-1.08,0-1.64c0.71-1.78,1.73-3.43,2.2-5.31
		c0,0-0.01,0.01-0.01,0.01C73.15,68.69,73.18,68.49,73.14,68.27z"/>
	<path class="st10" d="M72.95,68.81c-0.47,1.88-1.49,3.53-2.2,5.31c-0.22,0.56-0.4,1.06,0,1.64c0.93,1.37,1.81,2.77,2.7,4.16
		c0.07,0.41,0.53,0.65,0.47,1.11c-1.69-1.1-2.47-3.03-3.94-4.31c-1.19-1.04-0.85-2.04-0.09-3.09
		C71.01,72.09,71.64,70.23,72.95,68.81z"/>
	<path class="st10" d="M74.29,81.81c-0.32-0.13-0.28-0.43-0.32-0.69C74.28,81.26,74.17,81.59,74.29,81.81z"/>
	<path class="st0" d="M168.42,53.61c-1.35,0-2.7-0.01-4.05,0c-0.83,0.01-1.25-0.38-1.25-1.23c0-1.71,0.01-3.42-0.01-5.14
		c-0.01-0.94,0.49-1.26,1.36-1.24c1.49,0.02,2.97,0.01,4.46,0.01c0.44,0,0.87,0.06,0.96-0.62c0.1-0.7,2.73-1.2,2.82-0.6
		c0.13,0.95,1.04,1.44,1.04,2.35c0,1.76,0,3.51,0,5.27c0,0.86-0.46,1.2-1.28,1.2C171.12,53.6,169.77,53.61,168.42,53.61
		C168.42,53.61,168.42,53.61,168.42,53.61z M168.51,47.44c-1.39-0.03-2.4,0.94-2.41,2.33c-0.01,1.35,1.04,2.47,2.32,2.48
		c1.2,0.01,2.32-1.09,2.36-2.32C170.83,48.54,169.85,47.47,168.51,47.44z"/>
	<path class="st6" d="M203.21,86.41c-0.01-0.24,0.05-0.44,0.28-0.56C203.5,86.09,203.47,86.31,203.21,86.41z"/>
	<path class="st6" d="M202.96,86.69c0.09-0.1,0.18-0.2,0.27-0.29C203.14,86.49,203.05,86.59,202.96,86.69z"/>
	<path class="st6" d="M109.49,97.46c0.97,0.02,1.94,0.05,2.91,0.07c0.32,2.65-0.25,5.28-0.2,7.92c0.05,2.58-0.01,2.5,2.64,2.26
		c2.63-0.24,5.28-0.35,7.92,0.06c-0.05,0.7,0.13,1.29,0.93,1.34c0.88,0.06,1.9,0.4,2.36-0.8c1.78,0.13,3.28,1.07,4.92,1.62
		c3.01,1,6.13,1.7,9.22,2.5c1.76,0.46,1.72,0.43,2.11-1.42c0.61-2.89,1.28-5.77,1.92-8.66c0.9,0.18,1.8,0.36,2.7,0.54
		c0.59,0.73,0.29,1.58,0.22,2.34c-0.39,4.29-0.88,8.57-1.29,12.86c-0.07,0.69-0.41,0.78-0.97,0.8c-3.06,0.1-6.11,0.22-9.17,0.32
		c-1.58,0.05-1.61,0.08-1.2,1.62c1.59,6.03,5.59,9.91,11.11,12.43c0.8,0.36,2,0.47,2.01,1.52c0.02,0.96-1.05,1.36-1.85,1.77
		c-2.34,1.19-4.84,1.92-7.33,2.7c-2.05,0.82-4.14,0.84-6.35,0.66c-4.77-0.39-9.53-0.21-14.12,1.44c-0.73,0.26-1.39,0.63-1.96,1.15
		c-0.55,0.39-1.09,0.8-1.65,1.17c-1.03,0.7-1.37,0.58-1.65-0.62c-0.46-2.01-0.26-4.05-0.16-6.06c0.24-4.53,0.67-9.05,1.58-13.5
		c0.5-2.46,1.22-4.88,1.96-7.28c0.32-1.03,0.03-1.35-0.93-1.51c-2.61-0.44-5.21-0.95-7.82-1.41c-0.6-0.1-0.82-0.24-0.7-0.95
		c0.8-4.64,1.53-9.3,2.28-13.95C108.99,98,108.93,97.55,109.49,97.46z"/>
	<path class="st11" d="M146.91,102.89c-0.9-0.18-1.8-0.36-2.7-0.54c0.34-0.5,0.09-0.93-0.2-1.3c-0.33-0.41-0.37-0.86-0.39-1.34
		c0.26-0.51,0.52-1.01,0.78-1.52c0.12-0.24,0.24-0.51,0.58-0.37c0.25,0.1,0.57,0.33,0.48,0.57c-0.66,1.75,0.65,1.55,1.63,1.71
		c0.22,0.03,0.43,0.12,0.64,0.19C147.46,101.16,147.18,102.03,146.91,102.89z"/>
	<path class="st11" d="M154.81,101.1c0.81-0.02,1.62-0.08,2.42-0.06c0.79,0.02,1.25-0.12,0.83-1.06c-0.14-0.33-0.4-0.82,0.1-1.08
		c0.56-0.3,0.62,0.35,0.89,0.57c0.44,0.36,0.63,1.01,1.3,1.09c-0.79,0.91-0.69,1.8,0.05,2.67c-1.09-0.2-2.11,0.38-3.19,0.26
		C156.65,102.46,156.17,101.34,154.81,101.1z"/>
	<path class="st0" d="M139.9,153.86c0-0.09-0.01-0.18-0.01-0.26c0.03,0.06,0.07,0.12,0.09,0.19
		C139.99,153.8,139.93,153.83,139.9,153.86z"/>
	<path class="st12" d="M173.16,102.41c-0.68-2.41-0.09-3.51,2.75-5.11c3.08-1.73,6.08-1.19,8.3,1.59c1.8,2.25,2.09,4.92,1.87,7.68
		c-0.08,0.94-0.19,1.88-0.29,2.82c-0.67,2.57-1.21,5.16-1.16,7.83c-0.21,3.72,0.49,7.25,2.18,10.58c0.55,1.08,1.14,2.15,1.63,3.26
		c1.11,2.52,0.98,4.9-0.96,7.02c-0.81,0.27-1.6,0.57-2.42,0.81c-0.94,0.27-1.51,0.73-1.36,1.82c0.16,1.19-0.69,1.25-1.36,0.87
		c-1.2-0.67-2.44-0.79-3.76-0.85c-1.67-0.09-2.13-0.62-2.39-2.5c-0.18-1.32-0.5-2.35-2.23-2.11c-0.7,0.1-1.14-0.63-1.5-1.22
		c-1.03-1.71-0.78-3.48-0.08-5.2c1.46-3.63,2.97-7.24,4.51-10.84c1.38-3.21,2.1-6.57,2.45-10.03c0.12-0.81,0.03-1.59-0.17-2.4
		c-0.69-2.77-2.69-4.78-4-7.17C173.85,99.96,173.82,101.38,173.16,102.41z"/>
	<path class="st11" d="M173.16,102.41c0.66-1.03,0.69-2.45,2.01-3.14c1.31,2.39,3.31,4.4,4,7.17c0.2,0.81,0.3,1.58,0.17,2.4
		c-1.91,0.67-3.69,0.42-5.35-0.74C173.21,106.28,172.99,104.37,173.16,102.41z"/>
	<path class="st7" d="M184.64,117.22c-0.05-2.68,0.49-5.26,1.16-7.83c1.47,0.39,2.96,0.72,4.4,1.2c0.99,0.33,1.24,0,1.4-0.91
		c0.8-4.5,1.65-8.98,2.48-13.47c0.85,0.01,1.71,0.02,2.56,0.04c0.16,2.97-0.03,5.94-0.1,8.92c-0.09,4.1-0.09,8.21-0.07,12.31
		c0.01,1.07-0.12,1.5-1.41,1.27C191.61,118.13,188.12,117.72,184.64,117.22z"/>
	<path class="st12" d="M77.54,101.92c-1.06-0.86-2.14-0.71-3.23-0.07c-0.04,0.02-0.09,0.03-0.13,0.04c-1.3,0.58-3.31,0.61-3.75,1.77
		c-0.43,1.11,0.48,2.73,0.79,4.13c0.04,0.17,0.04,0.36,0.05,0.54c-1.54,0.02-2.53-0.55-2.98-2.19c-0.46-1.68-1.19-3.29-1.88-4.9
		c-0.27-0.63-0.22-0.94,0.4-1.27c2.26-1.22,4.45-2.55,6.74-3.7c1.57-0.8,3.27-0.03,4.9-0.01c0.59,0.01,1.08,2.03,0.72,2.71
		C78.65,99.97,78.09,100.94,77.54,101.92z"/>
	<path class="st11" d="M122.75,107.78c0.43-1.09-0.63-1.4-1.05-2.05c-0.01-0.85-0.03-1.7-0.04-2.55c-0.02-1.47,0.46-2.02,1.98-2.07
		c1.55-0.05,3.02,0.33,4.39,1.07c0.43,0.23,0.84,0.48,1.26,0.73c0,1.1-0.37,2.11-0.76,3.11c-0.25,0.64-0.67,1.16-1.44,1.27
		c-0.59,0.08-1.01,0.37-1.04,1.03c-0.46,1.21-1.48,0.86-2.36,0.8C122.88,109.06,122.7,108.47,122.75,107.78z"/>
	<path class="st12" d="M240.7,69.34c0.27-0.64-0.08-0.79-0.62-0.86c-0.3-0.04-0.49-0.25-0.43-0.57c0.06-0.29,0.27-0.55,0.57-0.43
		c0.73,0.29,0.96-0.04,1.07-0.68c0.05-0.28,0.24-0.49,0.58-0.43c0.33,0.06,0.46,0.3,0.4,0.59c-0.11,0.61-0.06,1.07,0.71,1.14
		c0.25,0.02,0.34,0.27,0.31,0.52c-0.04,0.33-0.25,0.5-0.56,0.43c-0.56-0.13-0.99-0.12-1.05,0.6c-0.03,0.36-0.22,0.59-0.63,0.52
		C240.53,70.08,240.66,69.69,240.7,69.34z"/>
	<path class="st10" d="M73.14,68.27c0.05,0.22,0.02,0.42-0.19,0.55C72.92,68.61,72.95,68.41,73.14,68.27z"/>
	<path class="st2" d="M90.21,42.59c0.73-0.1,1.24,0,1.17,0.95c-0.06,0.78-0.11,1.45-1.16,1.36c-0.61-0.06-1.36,0.12-1.24-0.9
		C89.07,43.25,89.03,42.37,90.21,42.59z"/>
	<path class="st13" d="M194.82,42.94c0-2.48,0.03-4.96-0.02-7.44c-0.02-0.81,0.21-1.09,1.05-1.07c3.02,0.05,6.04,0.05,9.06,0
		c0.84-0.01,1.06,0.24,1.06,1.06c-0.04,4.91-0.04,9.82,0,14.74c0.01,0.83-0.22,1.07-1.05,1.05c-3.02-0.05-6.04-0.05-9.06,0
		c-0.82,0.01-1.08-0.19-1.06-1.04C194.86,47.8,194.82,45.37,194.82,42.94z M200.35,36.29c-0.41,0-0.81,0-1.22,0
		c-3.36,0-3.34,0-3.21,3.43c0.03,0.88,0.35,1.21,1.21,1.18c1.44-0.04,2.89,0.01,4.33-0.01c3.98-0.08,3.32,0.74,3.4-3.57
		c0.01-0.74-0.23-1.06-1-1.04C202.69,36.32,201.52,36.29,200.35,36.29z M200.51,44.05c0.04,2.57-0.33,2.24,2.2,2.26
		c2.15,0.02,2.16,0,2.15-2.38c-0.02-2.51,0.31-2.21-2.1-2.21C200.15,41.73,200.55,41.37,200.51,44.05z M199.97,44.04
		c0-0.4-0.04-0.81,0.01-1.21c0.1-0.91-0.31-1.13-1.17-1.14c-2.88-0.03-2.88-0.06-2.87,2.79c0,1.83,0,1.85,1.74,1.83
		C200.33,46.29,199.93,46.68,199.97,44.04z M200.39,48.76c1.17,0,2.34,0,3.52,0c0.47,0,0.93,0.01,0.94-0.66
		c0.01-0.66-0.41-0.7-0.9-0.7c-2.3,0-4.6,0.01-6.9,0c-0.51,0-0.9,0.08-0.87,0.73c0.02,0.57,0.39,0.63,0.83,0.63
		C198.14,48.76,199.27,48.76,200.39,48.76z"/>
	<path class="st3" d="M168.51,47.44c1.34,0.03,2.33,1.1,2.28,2.48c-0.05,1.23-1.16,2.33-2.36,2.32c-1.28-0.01-2.34-1.13-2.32-2.48
		C166.11,48.38,167.12,47.41,168.51,47.44z"/>
	<path class="st5" d="M200.35,36.29c1.17,0,2.35,0.03,3.52-0.01c0.78-0.03,1.02,0.29,1,1.04c-0.09,4.31,0.58,3.49-3.4,3.57
		c-1.44,0.03-2.89-0.02-4.33,0.01c-0.86,0.02-1.18-0.31-1.21-1.18c-0.13-3.43-0.15-3.43,3.21-3.43
		C199.53,36.29,199.94,36.29,200.35,36.29z"/>
	<path class="st5" d="M200.51,44.05c0.04-2.68-0.35-2.33,2.25-2.33c2.4-0.01,2.08-0.31,2.1,2.21c0.02,2.39,0,2.4-2.15,2.38
		C200.18,46.29,200.54,46.63,200.51,44.05z"/>
	<path class="st5" d="M199.97,44.04c-0.04,2.63,0.36,2.24-2.29,2.27c-1.74,0.02-1.74,0-1.74-1.83c0-2.85,0-2.82,2.87-2.79
		c0.86,0.01,1.27,0.23,1.17,1.14C199.93,43.23,199.97,43.64,199.97,44.04z"/>
	<path class="st5" d="M200.39,48.76c-1.13,0-2.25,0-3.38,0c-0.44,0-0.81-0.05-0.83-0.63c-0.03-0.64,0.37-0.73,0.87-0.73
		c2.3,0.01,4.6,0,6.9,0c0.49,0,0.91,0.04,0.9,0.7c-0.01,0.67-0.47,0.66-0.94,0.66C202.74,48.76,201.57,48.76,200.39,48.76z"/>
</g>
</svg>
