<?xml version="1.0" encoding="utf-8"?>
<!-- Generator: Adobe Illustrator 26.0.2, SVG Export Plug-In . SVG Version: 6.00 Build 0)  -->
<svg version="1.1" id="Capa_1" xmlns="http://www.w3.org/2000/svg" xmlns:xlink="http://www.w3.org/1999/xlink" x="0px" y="0px"
	 viewBox="0 0 500 500" style="enable-background:new 0 0 500 500;" xml:space="preserve">
<style type="text/css">
	.st0{fill:url(#SVGID_1_);}
	.st1{fill:url(#SVGID_00000105422141137665184910000010624343240109581477_);}
	.st2{fill:url(#SVGID_00000109709621440395173110000009865771641194821545_);}
	.st3{fill:url(#SVGID_00000094606641230244830670000011256126842924515769_);}
	.st4{fill:url(#SVGID_00000182495269560444694820000006345472487931940238_);}
	.st5{fill:url(#SVGID_00000026132947877319558000000017794039638902085256_);}
	.st6{fill:url(#SVGID_00000145773084126869697660000004677133653243251596_);}
	.st7{fill:url(#SVGID_00000147199858607970199510000017035189115189132437_);}
	.st8{fill:#FDFEFF;}
	.st9{fill:#EA7B1F;}
	.st10{fill:#FFFFFF;}
</style>
<g>
	<path class="st8" d="M216.5,17.81c2.51,0,5.02,0,7.53,0c10.71,3.88,14.9,11.75,14.03,22.78c-0.17,2.22,0.21,4.49-0.09,6.68
		c-0.3,2.11-0.7,4.44-1.84,6.15c-13.28,19.79-21.89,41.36-23.96,65.15c-4.67,53.67,14.55,97.21,57.21,129.91
		c24.01,18.41,51.7,27.34,82.02,27.98c1.62,0.03,4.13,0.86,4.69,2.05c7.83,16.53,19.14,30.21,32.63,42.44
		c8.96,8.13,11.74,18.75,8.64,30.52c-3.87,14.68-16.04,23.22-32.67,23.23c-96.3,0.01-192.61,0.01-288.91,0
		c-1.25,0-2.51,0.01-3.76-0.07c-14.08-0.89-25.13-9.47-29.04-22.53c-0.4-1.32-0.84-2.63-1.26-3.95c0-3.07,0-6.13,0-9.2
		c1.96-8.2,6.01-14.96,12.4-20.67c27.3-24.35,40.93-54.97,41.11-91.54c0.08-16.72-0.11-33.44,0.06-50.16
		c0.52-51.49,33.79-98.18,82.3-115.31c7.95-2.81,16.23-4.67,24.7-7.07c0-4.55,0.27-9.43-0.05-14.27
		C201.49,28.92,205.9,21.42,216.5,17.81z"/>
	<path class="st9" d="M469.9,143.26c-1.63,7.88-2.74,15.92-4.98,23.63c-15.26,52.63-67.09,87.63-121.65,82.41
		c-63.61-6.09-110.16-61.9-104.89-125.78c4.48-54.4,48.55-99.35,102.87-104.97c1.08-0.11,2.14-0.49,3.21-0.74
		c6.41,0,12.82,0,19.23,0c0.92,0.25,1.83,0.62,2.77,0.72c47.4,5.21,86.7,38.64,99.24,84.71c1.85,6.8,2.82,13.84,4.2,20.78
		C469.9,130.43,469.9,136.85,469.9,143.26z M345.08,115.84c0,2.24,0,3.75,0,5.26c0,17.41-0.05,34.82,0.03,52.22
		c0.04,7.99,5.58,13.81,13.02,14.01c7.25,0.2,13.56-5.65,13.62-13.47c0.18-23.81,0.17-47.63-0.01-71.44
		c-0.05-6.93-4.7-12.45-11.34-12.9c-8.72-0.59-17.55-0.63-26.26-0.01c-7.18,0.51-11.91,7.05-11.4,14.06
		c0.49,6.73,6.01,11.96,13.02,12.25C338.66,115.94,341.56,115.84,345.08,115.84z"/>
	<path class="st10" d="M213.15,446c-8.4-2.78-17.36-4.5-25.1-8.54c-18-9.41-28.78-24.82-33.48-44.84c43.7,0,87.02,0,130.84,0
		c-1.25,8.06-4.37,15.22-8.64,21.86c-11.19,17.35-26.98,27.74-47.48,30.84c-0.66,0.1-1.28,0.45-1.93,0.69
		C222.63,446,217.89,446,213.15,446z"/>
</g>
</svg>
