<svg id="Capa_1" data-name="Capa 1" xmlns="http://www.w3.org/2000/svg" viewBox="0 0 500 500"><defs><style>.cls-1{fill:#1c244b;}</style></defs><path class="cls-1" d="M215.57,398.37q-41,0-81.92,0c-30.35,0-52.5-22.19-52.51-52.52q0-72.41,0-144.8c0-30.34,22.17-52.47,52.53-52.48q81.48,0,163,0c30.53,0,52.61,21.85,52.66,52.29q.12,72.62,0,145.23c-.05,30.42-22.15,52.26-52.68,52.28Q256.09,398.4,215.57,398.37ZM169.32,231.83c5.78,0,11.55,0,17.32,0,8.45-.08,14.68-5.93,14.77-13.75s-6.19-13.92-14.54-14q-18-.12-35.94,0c-8.16.06-14.22,6-14.28,13.73s6.12,13.88,14.48,14C157.2,231.89,163.26,231.83,169.32,231.83Z"/><path class="cls-1" d="M376.63,360.55V185.69c9.89-3.08,20.22-7.86,31-9.27,18-2.35,34,12.47,34.13,30.66q.47,66.29,0,132.6c-.17,21.14-20.75,35.89-41.22,29.93C392.26,367.21,384.37,363.53,376.63,360.55Z"/></svg>