<?xml version="1.0" encoding="utf-8"?>
<!-- Generator: Adobe Illustrator 26.0.2, SVG Export Plug-In . SVG Version: 6.00 Build 0)  -->
<svg version="1.1" id="Capa_1" xmlns="http://www.w3.org/2000/svg" xmlns:xlink="http://www.w3.org/1999/xlink" x="0px" y="0px"
	 viewBox="0 0 500 500" style="enable-background:new 0 0 500 500;" xml:space="preserve">
<style type="text/css">
	.st0{fill:url(#SVGID_1_);}
	.st1{fill:url(#SVGID_00000007406329649819595260000004428632166179484043_);}
	.st2{fill:url(#SVGID_00000093154629258547333190000003386006820819231913_);}
	.st3{fill:url(#SVGID_00000159469232410004494540000006664392886030567865_);}
	.st4{fill:url(#SVGID_00000080186990696053931450000000584672284660891288_);}
	.st5{fill:url(#SVGID_00000049904816351440139460000011070658395120030350_);}
	.st6{fill:url(#SVGID_00000010278342848768710930000011879531868805668495_);}
	.st7{fill:url(#SVGID_00000147205089272690895530000015669328823136515714_);}
	.st8{fill:#FDFEFF;}
	.st9{fill:#EA7B1F;}
	.st10{fill:#FFFFFF;}
</style>
<g>
	<linearGradient id="SVGID_1_" gradientUnits="userSpaceOnUse" x1="125.7048" y1="233.0151" x2="355.8735" y2="233.0151">
		<stop  offset="0" style="stop-color:#C26CA9"/>
		<stop  offset="1" style="stop-color:#336AB2"/>
	</linearGradient>
	<path class="st0" d="M232.09,417c-8.3-1.67-16.89-2.48-24.85-5.16c-44.63-15.02-71.49-45.83-80.04-92.22
		c-1.21-6.54-1.41-13.34-1.43-20.02c-0.11-52.46-0.07-104.93-0.05-157.39c0-9.48,6.16-16.23,14.86-16.42
		c7.97-0.18,14.3,5.08,15.55,13.01c0.28,1.76,0.3,3.58,0.3,5.37c0.02,52.22-0.26,104.45,0.11,156.67
		c0.25,36.45,17.37,63.04,50.37,78.23c50.43,23.2,110.28-10.6,117.26-65.61c0.51-4.03,0.78-8.11,0.79-12.17
		c0.05-55.7,0.09-111.39,0.01-167.09c-0.04-26.17-16.83-47.36-41.82-53.18c-32.63-7.6-65.15,17.5-65.34,51
		c-0.29,51.5-0.12,103.01-0.06,154.51c0.02,12.96,10.35,23.21,22.99,23.18c12.67-0.03,22.93-10.25,22.95-23.23
		c0.07-48.15,0.02-96.3,0.04-144.45c0-9.85,6.77-16.59,16.13-16.22c6.95,0.28,12.8,5.25,14.12,12.12c0.31,1.63,0.45,3.33,0.45,4.99
		c0.02,47.55,0.1,95.11-0.02,142.66c-0.05,20.06-8.41,36.06-25.54,46.62c-17.37,10.71-35.71,11.26-53.64,1.53
		c-18.21-9.88-27.95-25.84-28.1-46.5c-0.37-51.62-0.53-103.25,0.02-154.87c0.44-41.86,30.58-75.87,71.68-82.43
		c1.64-0.26,3.26-0.59,4.89-0.89c5.03,0,10.06,0,15.09,0c0.92,0.22,1.85,0.43,2.76,0.67c7.6,2.01,15.67,2.99,22.71,6.22
		c33.15,15.21,50.91,41.39,51.28,77.91c0.57,55.89,0.16,111.79,0.13,167.69c0,3.7-0.25,7.41-0.56,11.11
		c-4,46.9-37.92,87.72-83.35,99.99c-7.34,1.98-14.96,2.95-22.44,4.39C243.6,417,237.84,417,232.09,417z"/>
</g>
</svg>
