<svg id="Capa_1" data-name="Capa 1" xmlns="http://www.w3.org/2000/svg" viewBox="0 0 50 50"><defs><style>.cls-1{fill:#ea7b1f;}</style></defs><path class="cls-1" d="M28.91,38a2.75,2.75,0,0,1-1.21-.78c-1.13-1.11-2.27-2.21-3.4-3.3l2.34-2.34,1.62,1.57c.42-.41.85-.78,1.23-1.2a.78.78,0,0,0-.08-1.1c-.31-.32-.64-.62-1-1l1.38-1.05A12.63,12.63,0,0,1,31,30.21a2.36,2.36,0,0,1-.3,2.9c-.38.41-.8.78-1.2,1.17.27.28.5.54.75.76A1.67,1.67,0,0,1,29.5,38l0,0Z"/><path class="cls-1" d="M35.52,24.67a17.63,17.63,0,0,0-8.21,4l-6-6a17.81,17.81,0,0,0,3.94-8.25Z"/><path class="cls-1" d="M26,29.83c-.05,0-.1.11-.17.17q-1.87,1.89-3.76,3.76a2.48,2.48,0,0,1-3.75,0c-.71-.71-1.43-1.42-2.14-2.14a2.48,2.48,0,0,1,0-3.65L20,24.12l.14-.13Zm-6.68-.08a1,1,0,0,0,.55.8.79.79,0,0,0,.91-.17c.4-.39.79-.77,1.17-1.17a.82.82,0,0,0,0-1.17.84.84,0,0,0-1.19,0c-.38.38-.76.74-1.12,1.14A2.94,2.94,0,0,0,19.3,29.75Z"/><path class="cls-1" d="M27.33,10a1.71,1.71,0,0,1,1.17.55l4,4,6.84,6.84A1.66,1.66,0,0,1,37.24,24a3.45,3.45,0,0,1-.28-.26Q31.59,18.33,26.21,13A1.66,1.66,0,0,1,27.33,10Z"/><path class="cls-1" d="M35.28,13.81a2.09,2.09,0,0,1,.28-.48c.52-.55,1.06-1.09,1.61-1.62a.82.82,0,1,1,1.18,1.14c-.55.57-1.1,1.13-1.67,1.68a.77.77,0,0,1-.92.14A.9.9,0,0,1,35.28,13.81Z"/><path class="cls-1" d="M32,11.44c0-.27,0-.55,0-.82a.81.81,0,0,1,.8-.82.8.8,0,0,1,.84.76c0,.59,0,1.18,0,1.76a.81.81,0,0,1-.83.78.82.82,0,0,1-.81-.84C32,12,32,11.71,32,11.44Z"/><path class="cls-1" d="M38.58,18.06h-.8a.83.83,0,0,1-.83-.84.82.82,0,0,1,.83-.81q.82,0,1.65,0a.83.83,0,0,1,.82.82.84.84,0,0,1-.82.83C39.14,18.07,38.86,18.06,38.58,18.06Z"/><path class="cls-1" d="M19.3,29.75a2.94,2.94,0,0,1,.32-.55c.36-.4.74-.76,1.12-1.14a.84.84,0,0,1,1.19,0,.82.82,0,0,1,0,1.17c-.38.4-.77.78-1.17,1.17a.79.79,0,0,1-.91.17A1,1,0,0,1,19.3,29.75Z"/></svg>