<svg id="Capa_1" data-name="Capa 1" xmlns="http://www.w3.org/2000/svg" viewBox="0 0 50 50"><defs><style>.cls-1{fill:#2b2b5d;}</style></defs><path class="cls-1" d="M1,28.76c0-3.67,0-7.35,0-11,.05-3,1-3.67,3.87-2.94,6.46,1.64,12.7.15,18.94-1.31,5.4-1.25,10.76-2.81,16.4-2.55.65,0,1.32,0,2,.09,6.29.85,6.8,1.43,6.8,7.74s0,12.44,0,18.67c0,3.14-.87,3.8-4,3-7.27-1.75-14.18.29-21.14,1.91-6.06,1.42-12.11,2.9-18.39,1.41C1.25,42.79,1,42.5,1,38.1Zm30.16-1.22c-.07-4-2.78-7.06-6.19-7s-6.19,3.31-6.06,7.41,2.83,7,6.3,6.89S31.23,31.46,31.16,27.54ZM4.44,38.06c0,1.77,1.25,2.59,3.76,2.73.88.05,1.2-.17,1.1-1.06-.18-1.55-2.49-3.66-3.92-3.54S4.61,37.41,4.44,38.06Zm0-17.59c.43.77-.73,2.39,1,2.32S9,21.43,9,19.81c0-2-2.32-.9-3.53-1.27C3.86,18.06,4.78,19.77,4.4,20.47Zm41-1.35c.06-.53.09-1.07.17-1.6.22-1.55-.32-2.57-2-2.59-.75,0-1.87-1-2.19,0C41,16.28,42,17.37,43,18.25A3.28,3.28,0,0,0,45.41,19.12Zm.17,13.48c-2.15.36-3.88,1.32-3.9,3.22,0,1.18,2.33,1.21,3,1C46.7,36,45.09,34.13,45.58,32.6Z"/></svg>