<svg id="Capa_1" data-name="Capa 1" xmlns="http://www.w3.org/2000/svg" viewBox="0 0 50 50"><defs><style>.cls-1{fill:#2b2b5d;}</style></defs><path class="cls-1" d="M16.82,17.19c0-2.25,0-4.5,0-6.76a8,8,0,0,1,5.26-7.72,1.06,1.06,0,0,0,.48-.52,1.34,1.34,0,0,1,1.25-.86h4.34a1.34,1.34,0,0,1,1.29.89,1,1,0,0,0,.44.48,7.93,7.93,0,0,1,5.29,7.76q0,6.77,0,13.52c0,3.94-2.29,7.09-6.15,7.85-2.8.55-5.74.73-8.37-.88a7.49,7.49,0,0,1-3.8-6.38c-.09-2.46,0-4.92,0-7.38ZM27,3.8H25v8.05h2Z"/><path class="cls-1" d="M24,39.92a15.89,15.89,0,0,1-6.24-2.19,15.47,15.47,0,0,1-7.23-9.88A22.11,22.11,0,0,1,10,23.62c-.08-2,0-3.92,0-5.89a1.95,1.95,0,0,1,3.72-.86,3.26,3.26,0,0,1,.21,1.2c0,2.17,0,4.35,0,6.51a12,12,0,0,0,23.95,1.23,15.58,15.58,0,0,0,.15-2.16c0-1.92,0-3.84,0-5.77a2,2,0,1,1,3.93,0,84.83,84.83,0,0,1-.25,8.6A14.91,14.91,0,0,1,35.39,37c-2.24,1.64-3.28,2-7.37,3v5l.67,0c1.75,0,3.51,0,5.27,0a2,2,0,0,1,1.92,2.76A2,2,0,0,1,33.81,49H20.91c-1,0-2,0-3,0A2,2,0,0,1,16,47.37a1.9,1.9,0,0,1,1.1-2.14,3,3,0,0,1,1.14-.2c1.68,0,3.35,0,5,0H24Z"/></svg>