<svg id="Capa_1" data-name="Capa 1" xmlns="http://www.w3.org/2000/svg" viewBox="0 0 50 50"><defs><style>.cls-1{fill:#2b2b5d;}</style></defs><path class="cls-1" d="M39.84,25.15V42.78A4.83,4.83,0,0,1,34.64,48H18.19A4.85,4.85,0,0,1,13,42.78q0-17.7,0-35.41a4.84,4.84,0,0,1,5.17-5.19H34.68a4.85,4.85,0,0,1,5.16,5.2C39.85,13.3,39.84,19.22,39.84,25.15ZM26.06,38.52a13.52,13.52,0,0,0,5.71-1,5.17,5.17,0,0,0,3.31-5.05,8.51,8.51,0,0,0-3.92-6.67c-.47-.32-.4-.47-.15-.86a5.25,5.25,0,0,0,.24-5.67,5.22,5.22,0,0,0-4.85-2.86,5.22,5.22,0,0,0-4.83,2.87A5.27,5.27,0,0,0,21.85,25c.25.37.25.5-.15.76a8.58,8.58,0,0,0-3.67,5,5.31,5.31,0,0,0,3.28,6.89A12.84,12.84,0,0,0,26.06,38.52Zm.41-31.6H24.9a1.58,1.58,0,1,0,0,3.16q1.54,0,3.09,0a1.59,1.59,0,0,0,1.61-1.56,1.6,1.6,0,0,0-1.65-1.6Z"/><path class="cls-1" d="M6.67,24.79c.31,0,.62,0,.92,0a1.55,1.55,0,0,1,.27,3.05,5.45,5.45,0,0,1-2.41,0A1.53,1.53,0,0,1,4.3,26.22a1.55,1.55,0,0,1,1.46-1.43C6.06,24.77,6.37,24.79,6.67,24.79Z"/><path class="cls-1" d="M46.15,24.79c.31,0,.62,0,.92,0a1.55,1.55,0,0,1,1.45,1.44,1.53,1.53,0,0,1-1.15,1.62,5.45,5.45,0,0,1-2.41,0,1.55,1.55,0,0,1,.28-3.05C45.54,24.77,45.85,24.79,46.15,24.79Z"/><path class="cls-1" d="M6.94,14.18c1.14,0,2.89,1.69,2.88,2.67a1.53,1.53,0,0,1-.89,1.43,1.45,1.45,0,0,1-1.66-.19A13,13,0,0,1,5.88,16.7,1.48,1.48,0,0,1,5.73,15,1.41,1.41,0,0,1,6.94,14.18Z"/><path class="cls-1" d="M43,17a3.75,3.75,0,0,1,2.66-2.8,1.45,1.45,0,0,1,1.43.86,1.5,1.5,0,0,1-.16,1.67,12.16,12.16,0,0,1-1.39,1.39,1.43,1.43,0,0,1-1.66.17A1.51,1.51,0,0,1,43,17Z"/><path class="cls-1" d="M5.58,36.93A1.43,1.43,0,0,1,6,35.82c.37-.36.73-.75,1.11-1.11a1.59,1.59,0,0,1,2.19,0,1.56,1.56,0,0,1,.06,2.24,14.75,14.75,0,0,1-1.26,1.24,1.45,1.45,0,0,1-1.71.18A1.44,1.44,0,0,1,5.58,36.93Z"/><path class="cls-1" d="M44.32,34.27a1.66,1.66,0,0,1,1.35.42c.39.39.79.76,1.16,1.16a1.6,1.6,0,0,1,0,2.2,1.53,1.53,0,0,1-2.18,0,16.38,16.38,0,0,1-1.25-1.25,1.48,1.48,0,0,1-.2-1.72A1.33,1.33,0,0,1,44.32,34.27Z"/><path class="cls-1" d="M26.06,38.52a12.84,12.84,0,0,1-4.75-.89A5.31,5.31,0,0,1,18,30.74a8.58,8.58,0,0,1,3.67-5c.4-.26.4-.39.15-.76a5.27,5.27,0,0,1-.28-5.73,5.22,5.22,0,0,1,4.83-2.87,5.22,5.22,0,0,1,4.85,2.86A5.25,5.25,0,0,1,31,25c-.25.39-.32.54.15.86a8.51,8.51,0,0,1,3.92,6.67,5.17,5.17,0,0,1-3.31,5.05A13.52,13.52,0,0,1,26.06,38.52ZM28.78,22a2.37,2.37,0,1,0-2.42,2.33A2.38,2.38,0,0,0,28.78,22Z"/><path class="cls-1" d="M26.47,6.92h1.45a1.6,1.6,0,0,1,1.65,1.6A1.59,1.59,0,0,1,28,10.08q-1.55,0-3.09,0a1.58,1.58,0,1,1,0-3.16Z"/><path class="cls-1" d="M28.78,22a2.37,2.37,0,1,1-2.35-2.41A2.37,2.37,0,0,1,28.78,22Z"/></svg>