<svg id="Capa_1" data-name="Capa 1" xmlns="http://www.w3.org/2000/svg" viewBox="0 0 50 50"><defs><style>.cls-1,.cls-2{fill:#ea7b1f;}.cls-2{stroke:#fffefd;stroke-miterlimit:10;}</style></defs><path class="cls-1" d="M37.18,12.21l.39.07a1.39,1.39,0,0,1,1.08,1.24,21.61,21.61,0,0,1-.13,4.1,20.15,20.15,0,0,1-1.71,6.19,19.94,19.94,0,0,1-4.43,6,21,21,0,0,1-4.69,3.4l-.12.06-9.9-9.9c.2-.35.41-.75.65-1.14a22.06,22.06,0,0,1,7.47-7.41,16.85,16.85,0,0,1,5.54-2.06c1.12-.22,2.28-.31,3.42-.46l.26,0ZM25.92,20.92a4.06,4.06,0,0,0,8.11,0,4.06,4.06,0,1,0-8.11,0Z"/><path class="cls-1" d="M11,25.57c.18-.33.34-.68.54-1,.79-1.21,1.59-2.4,2.38-3.61a2.26,2.26,0,0,1,1.81-1.11L18,19.69a19.86,19.86,0,0,0-3.59,7.94l-1.66-.25-.13,0A1.67,1.67,0,0,1,11,26.11Z"/><path class="cls-1" d="M11,38.87c.17-.21.33-.44.52-.64,1.57-1.57,3.14-3.15,4.72-4.71a1.3,1.3,0,0,1,.57-.32.7.7,0,0,1,.78.37.77.77,0,0,1,0,.89,1.26,1.26,0,0,1-.22.24l-4.77,4.78C12,40.1,11.45,40,11,39.3Z"/><path class="cls-1" d="M11,34.11a4.4,4.4,0,0,1,.45-.65c.79-.81,1.59-1.6,2.38-2.4a.85.85,0,0,1,.83-.28.79.79,0,0,1,.41,1.32c-.88.92-1.79,1.83-2.71,2.72a.8.8,0,0,1-1.29-.32c0-.06-.05-.12-.07-.17Z"/><path class="cls-1" d="M25.87,34a14,14,0,0,1-3.32.91,1.28,1.28,0,0,1-1.11-.4c-1.68-1.68-3.37-3.36-5-5A1.34,1.34,0,0,1,16,28.15c.15-.65.3-1.3.47-1.94.11-.42.28-.82.41-1.19Z"/><path class="cls-1" d="M31.22,32.86c-.08.91-.13,1.77-.23,2.61a1.94,1.94,0,0,1-.87,1.38c-1.42.94-2.83,1.89-4.26,2.81a1.47,1.47,0,0,1-2.26-1c-.12-.71-.22-1.43-.34-2.18A20.06,20.06,0,0,0,31.22,32.86Z"/><path class="cls-1" d="M19.21,35.61a.83.83,0,0,1,.85.47.76.76,0,0,1-.13.88c-.2.22-.42.43-.64.65-.67.67-1.33,1.34-2,2a.8.8,0,0,1-1.38-.35.76.76,0,0,1,.22-.77c.87-.88,1.74-1.76,2.63-2.63A1.79,1.79,0,0,1,19.21,35.61Z"/><path class="cls-2" d="M25.92,20.92A4.06,4.06,0,1,1,30,25,4.05,4.05,0,0,1,25.92,20.92Zm1.62,0A2.43,2.43,0,1,0,30,18.49,2.42,2.42,0,0,0,27.54,20.91Z"/><path class="cls-1" d="M27.54,20.91a2.43,2.43,0,1,1,2.4,2.45A2.44,2.44,0,0,1,27.54,20.91Z"/></svg>