<svg id="Capa_1" data-name="Capa 1" xmlns="http://www.w3.org/2000/svg" viewBox="0 0 50 50"><defs><style>.cls-1{fill:#fdfdfe;}.cls-2{fill:#323262;}.cls-3{fill:#2c2c5d;}.cls-4{fill:#333363;}.cls-5{fill:#393968;}</style></defs><path class="cls-1" d="M24.49,46A21.62,21.62,0,0,0,46.4,24.34a21.62,21.62,0,0,0-21.91-22A21.66,21.66,0,0,0,2.57,24,21.66,21.66,0,0,0,24.49,46Z"/><path class="cls-2" d="M24.49,46A21.66,21.66,0,0,1,2.57,24,21.66,21.66,0,0,1,24.49,2.34a21.62,21.62,0,0,1,21.91,22A21.62,21.62,0,0,1,24.49,46Zm-.28-4.16A17.67,17.67,0,1,0,24.78,6.5a17.67,17.67,0,1,0-.57,35.34Z"/><path class="cls-3" d="M24.73,27.15c3,0,6,.06,9,0,1.93-.05,2.22.75,1.8,2.46-1.12,4.6-5.32,7.81-10.56,7.9-5.78.1-10.07-2.85-11.38-7.7-.48-1.8-.26-2.73,1.89-2.66C18.53,27.22,21.63,27.15,24.73,27.15Z"/><path class="cls-4" d="M36.71,19.38c-.14,1.61-1,1.55-1.84.95a5.11,5.11,0,0,0-6.68,0c-.89.65-1.94.48-1.65-.85.58-2.6,2.86-3.43,5.07-3.42A5,5,0,0,1,36.71,19.38Z"/><path class="cls-5" d="M20.13,18.44c-.18,1.61-.9,2.72-2.67,2.76a2.49,2.49,0,0,1-2.75-2.64,2.47,2.47,0,0,1,2.62-2.75C19.09,15.75,19.88,16.83,20.13,18.44Z"/></svg>