<svg id="Capa_1" data-name="Capa 1" xmlns="http://www.w3.org/2000/svg" viewBox="0 0 50 50"><defs><style>.cls-1{fill:#2b2b5d;}</style></defs><path class="cls-1" d="M48,31.2v9.9a2.22,2.22,0,0,1-2.49,2.52c-2.73,0-5.46,0-8.2,0a2.23,2.23,0,0,1-2.51-2.5q0-10,0-19.92a2.23,2.23,0,0,1,2.5-2.52h8.2a2.21,2.21,0,0,1,2.5,2.5Z"/><path class="cls-1" d="M32.2,34v7.1a2.22,2.22,0,0,1-2.51,2.5c-2.73,0-5.46,0-8.19,0A2.22,2.22,0,0,1,19,41.11V26.91a2.21,2.21,0,0,1,2.51-2.5q4.1,0,8.19,0a2.2,2.2,0,0,1,2.49,2.51Z"/><path class="cls-1" d="M5.06,20.69a58.22,58.22,0,0,0,12.31-2,69.74,69.74,0,0,0,20.19-9c.82-.54.83-.61.15-1.28-.46-.45-1-.87-1.38-1.36-.24-.29-.54-.74-.46-1s.57-.53.92-.62c1.88-.49,3.77-.93,5.65-1.38l3.36-.83c1.17-.29,1.59.08,1.33,1.25q-1,4.65-2.07,9.29c-.24,1.08-.77,1.22-1.55.45-.6-.59-1.23-1.17-1.79-1.8s-.81-.49-1.35-.12A68.84,68.84,0,0,1,28,19,66.6,66.6,0,0,1,10.57,23.9c-2,.27-4.07.37-6.11.52a6.89,6.89,0,0,1-1.57-.07,1.79,1.79,0,0,1-1.53-1.88A1.85,1.85,0,0,1,3.11,20.7C3.76,20.67,4.41,20.69,5.06,20.69Z"/><path class="cls-1" d="M16.41,36.61c0,1.53,0,3.07,0,4.61a2.19,2.19,0,0,1-2.36,2.4c-2.83,0-5.67,0-8.5,0a2.15,2.15,0,0,1-2.33-2.3c0-3.16,0-6.31,0-9.47a2.14,2.14,0,0,1,2.35-2.28q4.26,0,8.5,0a2.19,2.19,0,0,1,2.34,2.36C16.42,33.49,16.41,35.05,16.41,36.61Z"/></svg>