<svg id="Capa_1" data-name="Capa 1" xmlns="http://www.w3.org/2000/svg" viewBox="0 0 50 50"><defs><style>.cls-1{fill:#ea7b1f;}</style></defs><path class="cls-1" d="M11,26.48c.19-.41.36-.82.57-1.21.82-1.5,1.66-3,2.49-4.48a6.15,6.15,0,0,1,1.75-2c.7-.51,1.4-1,2.1-1.56a2.05,2.05,0,0,1,1.78-.41l-.1.22-6.3,10.9a1,1,0,0,1-1.59.3,2.28,2.28,0,0,1-.7-1.12Z"/><path class="cls-1" d="M21.91,25.69l4.19-7.26.26.12c1.73.9,3.45,1.79,5.17,2.7a1.59,1.59,0,0,0,.88.21c.25,0,.51,0,.79,0v10a.33.33,0,0,1-.27.39,10.89,10.89,0,0,1-8.85-.53A3.36,3.36,0,0,0,22.49,31c-1.95,0-3.91,0-5.86,0a1.85,1.85,0,0,1-.91-3.45,2.09,2.09,0,0,1,1.07-.25H23a1.67,1.67,0,0,0,.32,0,.8.8,0,0,0,.61-.84.81.81,0,0,0-.79-.72C22.76,25.68,22.37,25.69,21.91,25.69Z"/><path class="cls-1" d="M34.78,26.48c0-1.9,0-3.79,0-5.68a.81.81,0,0,1,.91-.93h1.51a.79.79,0,0,1,.85.86V32.22a.8.8,0,0,1-.88.86c-.51,0-1,0-1.53,0a.8.8,0,0,1-.86-.87C34.78,30.3,34.78,28.39,34.78,26.48Z"/><path class="cls-1" d="M25.54,16.24l-2.31,4c-1,1.75-2,3.49-3,5.24a.38.38,0,0,1-.39.22c-1.11,0-2.23,0-3.4,0l6.37-11Z"/><path class="cls-1" d="M20.07,33.34a1.85,1.85,0,0,1-1.4,1.54,1.73,1.73,0,0,1-1.76-.53c.33-.56.65-1.13,1-1.7a.26.26,0,0,1,.19-.09c1.58,0,3.17,0,4.75,0a2.24,2.24,0,0,1,.88.37c.05,0,.06.14.06.22a1.85,1.85,0,0,1-3.63.42C20.13,33.52,20.1,33.45,20.07,33.34Z"/><path class="cls-1" d="M13.56,30.65a3.53,3.53,0,0,0,2.58,1.88,7.17,7.17,0,0,1-1.08,1.57c-.69.61-1.35,1.27-2,1.9-.3.28-.55.33-.83.17a.64.64,0,0,1-.28-.82c.22-1,.44-1.89.67-2.83a3.57,3.57,0,0,1,.27-.68C13.08,31.45,13.31,31.07,13.56,30.65Z"/><path class="cls-1" d="M26.33,14.86,23.6,13.29a1.86,1.86,0,0,1,.1-.2c.39-.68.77-1.36,1.17-2a1.05,1.05,0,0,1,1.53-.43c.3.17.6.34.89.52a1,1,0,0,1,.4,1.33C27.26,13.28,26.8,14.06,26.33,14.86Z"/></svg>