<svg id="Capa_1" data-name="Capa 1" xmlns="http://www.w3.org/2000/svg" viewBox="0 0 500 500"><defs><style>.cls-1{fill:#1c244b;}</style></defs><path class="cls-1" d="M241,458c-6.65-1-13.34-1.75-19.95-3-37.22-7-68.5-24.77-93.85-52.83-22.47-24.89-36.55-54.08-41.11-87.33C78.88,262.06,93,215.4,129,176c26-28.46,58.37-45.94,96.48-51.71,48-7.26,91.52,4,130.06,33.81a1.84,1.84,0,0,1,.46.52l-32.58,32.67c-30.15-21.17-63.75-28.28-100.13-19.7-28.74,6.78-52,22.54-69.46,46.36-35.71,48.7-30.65,114.93,11.78,158.05a121,121,0,0,0,157.66,12.67c27.14-19.71,43.58-46.52,48.78-79.79S369.41,245.3,350.18,218l32.65-32.55c.61.71,1.47,1.58,2.19,2.55,27.64,36.87,39,78.3,32.84,124-9.71,71.9-61.58,127.39-132.41,142.56-7.56,1.61-15.32,2.32-23,3.45Z"/><path class="cls-1" d="M475.92,120c-1.51,1.7-2.94,3.48-4.54,5.09-15.3,15.37-30.69,30.65-45.89,46.12-3.08,3.13-6.09,4-10.26,2.77-8.67-2.55-17.47-4.63-26.14-7.18-3.17-.93-5.21-.46-7.64,2q-61.24,61.64-122.7,123a27.48,27.48,0,0,1-3.36,3.12A6,6,0,0,1,247,286.5a24.45,24.45,0,0,1,2.86-3.08q61.5-61.63,123.08-123.2c2.43-2.42,2.95-4.46,2-7.65-2.58-8.81-4.74-17.74-7.26-26.56-1.1-3.87-.31-6.76,2.59-9.63,16-15.8,31.76-31.74,47.64-47.62,1.16-1.15,2.48-2.14,3.73-3.21h3.82c1.56,2.34,3.75,4.48,4.56,7,2.41,7.61,4.28,15.39,6.35,23,.38,0,.56.06.62,0,1.68-1.56,3.31-3.16,5-4.7,3.05-2.78,6.28-2.94,8.88-.5s2.68,6-.25,9.15c-1.64,1.73-3.54,3.21-5.9,5.32,8.84,2.39,16.6,4.27,24.2,6.68,2.57.82,4.7,3,7,4.57Z"/><path class="cls-1" d="M290.62,225c-1.06,1.13-1.89,2.06-2.77,3-9.73,9.76-19.51,19.46-29.16,29.3a8.74,8.74,0,0,1-6.93,3A29.7,29.7,0,0,0,222,291.32c.59,16.63,15.22,29.73,32,28.64a29.75,29.75,0,0,0,27.68-30.14,7.91,7.91,0,0,1,2.63-6.3c9.83-9.66,19.53-19.45,29.23-29.24a26.84,26.84,0,0,0,2.51-3.61c15.32,21.84,18.75,63.51-10.44,93a75.62,75.62,0,0,1-103.35,3.76c-30.32-26.59-35-71.49-10.63-103.33C217.33,210.39,261.32,206.77,290.62,225Z"/></svg>