<svg id="Capa_1" data-name="Capa 1" xmlns="http://www.w3.org/2000/svg" xmlns:xlink="http://www.w3.org/1999/xlink" viewBox="0 0 500 500"><defs><style>.cls-1{fill:url(#Degradado_sin_nombre_13);}.cls-2{fill:url(#Degradado_sin_nombre_13-2);}.cls-3{fill:url(#Degradado_sin_nombre_13-3);}</style><linearGradient id="Degradado_sin_nombre_13" x1="62.43" y1="242.63" x2="414.41" y2="242.63" gradientUnits="userSpaceOnUse"><stop offset="0" stop-color="#c26ca9"/><stop offset="0.58" stop-color="#ea7b1f"/><stop offset="0.94" stop-color="#336ab2"/></linearGradient><linearGradient id="Degradado_sin_nombre_13-2" x1="93.88" y1="250.51" x2="414.33" y2="250.51" xlink:href="#Degradado_sin_nombre_13"/><linearGradient id="Degradado_sin_nombre_13-3" x1="-418.16" y1="2641.46" x2="-299.3" y2="2641.46" gradientTransform="translate(2132.55 -1906.76) rotate(32.18)" xlink:href="#Degradado_sin_nombre_13"/></defs><path class="cls-1" d="M82,386H400.68a46.65,46.65,0,0,1,4.88.09,9.73,9.73,0,0,1,.29,19.35,30.65,30.65,0,0,1-4.07.11H75.1c-9.36,0-12.65-3.33-12.65-12.78q0-150.09,0-300.17a36.76,36.76,0,0,1,.08-4.07,9.73,9.73,0,0,1,19.35-.25A37.74,37.74,0,0,1,82,93.16V386Z"/><path class="cls-2" d="M153,269.4c-1,1.66-1.79,2.89-2.52,4.16-12.49,21.75-24.88,43.57-37.6,65.19a16,16,0,0,1-7.49,6.17c-3.47,1.38-7-.34-9.34-3.37a9.43,9.43,0,0,1-.74-11.07c4.15-7.46,8.48-14.83,12.73-22.24q16.8-29.3,33.6-58.59c4.84-8.42,11.83-9.15,18.3-1.89q17.22,19.31,34.34,38.68c1,1.1,2,2.19,3.25,3.6.93-1.69,1.74-3.06,2.45-4.48l51.6-103.78c4.76-9.58,12.07-10.53,19-2.48q27.89,32.14,55.77,64.3c.88,1,1.81,2,3.1,3.44,1.17-1.46,2.25-2.76,3.27-4.09q31.38-40.84,62.71-81.72c2.62-3.42,5.59-6.06,10.17-5.56,7.81.86,11.31,9.4,6.42,16-6.37,8.62-13,17.05-19.54,25.55l-53.07,69.1c-6.13,8-12.1,8.17-18.65.62q-26.94-31.08-53.91-62.13c-.88-1-1.83-2-3.15-3.42-.93,1.8-1.73,3.3-2.48,4.82L210,309.28c-4.89,9.84-11.94,10.82-19.24,2.63C178.32,297.92,165.9,283.9,153,269.4Z"/><polygon class="cls-3" points="345.92 147.23 444.56 94.62 449.68 205.5 345.92 147.23"/></svg>