<?xml version="1.0" encoding="utf-8"?>
<!-- Generator: Adobe Illustrator 26.0.2, SVG Export Plug-In . SVG Version: 6.00 Build 0)  -->
<svg version="1.1" id="Capa_1" xmlns="http://www.w3.org/2000/svg" xmlns:xlink="http://www.w3.org/1999/xlink" x="0px" y="0px"
	 viewBox="0 0 500 500" style="enable-background:new 0 0 500 500;" xml:space="preserve">
<style type="text/css">
	.st0{fill:url(#SVGID_1_);}
	.st1{fill:url(#SVGID_00000013907607672791354900000011425985865213036446_);}
	.st2{fill:url(#SVGID_00000114060339888391619910000017346303079522962573_);}
	.st3{fill:url(#SVGID_00000159451866128792742040000007073221291611096709_);}
	.st4{fill:url(#SVGID_00000094599358718464804710000006213518484572392069_);}
	.st5{fill:url(#SVGID_00000086659364867770879520000013748982521820720261_);}
	.st6{fill:url(#SVGID_00000008113472861320767080000017209015239206465422_);}
	.st7{fill:url(#SVGID_00000098901391933955210750000013312422670119191202_);}
	.st8{fill:#FDFEFF;}
	.st9{fill:#EA7B1F;}
	.st10{fill:#FFFFFF;}
</style>
<g>
	<linearGradient id="SVGID_1_" gradientUnits="userSpaceOnUse" x1="147.1336" y1="118.2441" x2="431" y2="118.2441">
		<stop  offset="0" style="stop-color:#C26CA9"/>
		<stop  offset="1" style="stop-color:#336AB2"/>
	</linearGradient>
	<path class="st0" d="M431,140.51c-1.28,7.29-2.57,14.58-3.83,21.87c-0.41,2.39-0.78,4.78-1.23,7.58
		c-92.94-19.67-185.63-39.28-278.8-58.99c0.66-4.54,1.28-8.93,1.94-13.32c0.69-4.57,1.45-9.12,2.12-13.69
		c1.83-12.51,11.69-19.5,24.11-16.9c36.16,7.58,72.3,15.22,108.45,22.87c43.04,9.11,86.06,18.37,129.14,27.28
		c9.27,1.91,15.13,6.85,18.11,15.6C431,135.37,431,137.94,431,140.51z"/>
	
		<linearGradient id="SVGID_00000040534572596915470590000004147129675485498030_" gradientUnits="userSpaceOnUse" x1="36.4229" y1="285.39" x2="415.4633" y2="285.39">
		<stop  offset="0" style="stop-color:#C26CA9"/>
		<stop  offset="1" style="stop-color:#336AB2"/>
	</linearGradient>
	<path style="fill:url(#SVGID_00000040534572596915470590000004147129675485498030_);" d="M415.46,211.81
		c-3.16,15.06-6.26,29.85-9.39,44.65c-2.44,11.55-4.88,23.09-7.4,34.62c-2.68,12.21-12.12,18.19-24.42,15.57
		c-7.28-1.55-14.55-3.09-21.84-4.61c-0.95-0.2-1.94-0.23-3.34-0.38c2.33,8.42,4.61,16.4,6.76,24.42c2.58,9.66-0.74,18.42-8.78,22.87
		c-2.21,1.22-4.71,2.02-7.17,2.7c-78.34,21.76-156.69,43.48-235.03,65.2c-13.47,3.74-22.93-1.56-26.69-15.09
		c-13.6-48.93-27.16-97.87-40.7-146.81c-3.5-12.67,2.03-22.3,14.81-25.87c22.72-6.36,45.44-12.75,68.22-18.89
		c3.24-0.87,4.53-2.33,5.16-5.46c3.28-16.22,6.74-32.4,10.16-48.59c0.21-0.99,0.51-1.96,0.87-3.34c7.97,1.66,15.84,3.27,23.69,4.93
		c27.1,5.75,54.2,11.56,81.32,17.22c2.03,0.42,4.36,0.21,6.38-0.33c14.75-3.9,29.4-8.2,44.21-11.87c8.86-2.19,17.8,2.87,21.11,11.44
		c1.75,4.53,3.04,9.27,4.13,14c0.56,2.46,1.84,3.3,4.05,3.76c29.63,6.22,59.25,12.48,88.86,18.74
		C412.03,211.01,413.63,211.39,415.46,211.81z M69.62,311.88c0.32,1.41,0.52,2.53,0.83,3.63c7.59,27.31,15.19,54.62,22.79,81.93
		c1.44,5.19,2.46,5.78,7.68,4.33c78.36-21.76,156.71-43.53,235.06-65.3c5.27-1.46,5.82-2.43,4.38-7.64
		c-5.42-19.53-10.85-39.05-16.27-58.58c-2.46-8.87-4.91-17.74-7.45-26.91C234.08,266.24,151.92,289.04,69.62,311.88z M307.34,209.94
		c-2.55-9.26-4.99-18.12-7.44-26.99c-1.42-5.13-2.47-5.71-7.74-4.25c-76.96,21.36-153.91,42.74-230.87,64.06
		c-10.81,2.99-10.43,2.43-7.35,13.15c2.15,7.48,4.2,15,6.32,22.61C142.78,255.61,224.88,232.82,307.34,209.94z M357.22,218.89
		c-5.38-0.03-8.33,2.04-9.3,6.3c-2.04,8.99-3.97,18-5.63,27.07c-1.05,5.7,1.18,8.86,6.76,10.12c8.74,1.97,17.51,3.82,26.3,5.57
		c5.41,1.07,8.96-1.24,10.18-6.68c2-8.86,3.89-17.76,5.64-26.67c0.98-4.99-1.36-8.52-6.25-9.86c-2.09-0.58-4.25-0.93-6.38-1.38
		C371.03,221.77,363.52,220.21,357.22,218.89z"/>
	
		<linearGradient id="SVGID_00000037681740150024435130000004697000910187753395_" gradientUnits="userSpaceOnUse" x1="93.8872" y1="357.3992" x2="145.1231" y2="357.3992">
		<stop  offset="0" style="stop-color:#C26CA9"/>
		<stop  offset="1" style="stop-color:#336AB2"/>
	</linearGradient>
	<path style="fill:url(#SVGID_00000037681740150024435130000004697000910187753395_);" d="M93.89,347.07
		c0.01-3.66,2.14-6.25,5.79-7.32c9.22-2.7,18.47-5.29,27.77-7.71c4.42-1.15,8.26,1.02,9.62,5.52c2.76,9.2,5.36,18.45,7.73,27.76
		c1.2,4.73-0.97,8.38-5.77,9.81c-9.08,2.71-18.22,5.22-27.41,7.55c-4.53,1.15-8.11-0.44-9.38-4.52c-3-9.65-5.52-19.46-8.22-29.2
		C93.89,348.48,93.94,347.95,93.89,347.07z"/>
</g>
</svg>
