<svg id="Capa_1" data-name="Capa 1" xmlns="http://www.w3.org/2000/svg" viewBox="0 0 50 50"><defs><style>.cls-1{fill:#2b2b5d;}</style></defs><path class="cls-1" d="M7.33,18.1c11.36,0,22.72.06,34.08-.1,2.72,0,3.37.9,3.3,3.45-.17,5.85,0,11.71-.06,17.56,0,4.48-1.95,6.44-6.38,6.46q-13,.06-26,0c-4.38,0-5.63-1.32-5.63-5.62q0-10.55,0-21.08Zm4.92,10.6c0,5.31.19,5.61,3.4,5.56,6.7-.12,7.17-.46,7.17-5.29,0-5.27,0-5.29-5.45-5.26C11.69,23.74,12.3,23.06,12.25,28.7Z"/><path class="cls-1" d="M25.64,15.27c-5.27,0-10.55,0-15.82,0-1.68,0-3.39.22-3.22-2.39.15-2.29-.49-5.24,3-5.27,3.17,0,5.09-.44,5-4.28C14.57,1.52,16.68,2,18,1.89c1.58-.1,2.11.77,2,2.17C19.66,7,21.2,7.76,23.78,7.53a22.85,22.85,0,0,1,3.51,0c2.11.13,3.52-.51,3.26-2.92-.24-2.23.81-2.75,2.86-2.78s3,.71,2.8,2.85C36,7.46,37.84,7.6,39.88,7.51c2.77-.11,4.39,1.12,4.76,4s-.4,4-3.54,3.87C36,15.08,30.79,15.27,25.64,15.27Z"/><path class="cls-1" d="M7.33,18.1l-.65.67Z"/></svg>