<?xml version="1.0" encoding="utf-8"?>
<!-- Generator: Adobe Illustrator 26.0.2, SVG Export Plug-In . SVG Version: 6.00 Build 0)  -->
<svg version="1.1" id="Capa_1" xmlns="http://www.w3.org/2000/svg" xmlns:xlink="http://www.w3.org/1999/xlink" x="0px" y="0px"
	 viewBox="0 0 500 500" style="enable-background:new 0 0 500 500;" xml:space="preserve">
<style type="text/css">
	.st0{fill:url(#SVGID_1_);}
	.st1{fill:url(#SVGID_00000004511479468333293150000007360321704829158591_);}
	.st2{fill:url(#SVGID_00000041269452500585572330000012450718244163740586_);}
	.st3{fill:url(#SVGID_00000136383771203997250800000005126756648803546773_);}
	.st4{fill:url(#SVGID_00000083784627956776640110000009293393876768024748_);}
	.st5{fill:url(#SVGID_00000146458573808439472880000017340048395242686123_);}
	.st6{fill:url(#SVGID_00000144301078367207634920000014595936000736118663_);}
	.st7{fill:url(#SVGID_00000008834062189333809940000003997772425100756894_);}
	.st8{fill:#FDFEFF;}
	.st9{fill:#EA7B1F;}
	.st10{fill:#FFFFFF;}
</style>
<g>
	<linearGradient id="SVGID_1_" gradientUnits="userSpaceOnUse" x1="140.157" y1="248.6757" x2="360.9271" y2="248.6757">
		<stop  offset="0" style="stop-color:#C26CA9"/>
		<stop  offset="1" style="stop-color:#336AB2"/>
	</linearGradient>
	<path class="st0" d="M360.17,249c0,15.47,1.11,31.04-0.21,46.4c-4.11,47.82-43.08,88.79-90.48,96.33
		c-59.99,9.55-114.71-27.76-127-86.87c-1.51-7.24-2.06-14.78-2.15-22.19c-0.27-22.51-0.15-45.02-0.09-67.53
		c0.16-55.5,39.43-101.13,94.38-109.74c58.24-9.13,115.7,32.13,124.34,90.42c2.48,16.74,1.4,34.01,1.95,51.04
		c0.02,0.72,0,1.43,0,2.15C360.67,249,360.42,249,360.17,249z"/>
	
		<linearGradient id="SVGID_00000172426569204190105990000008828933039184476339_" gradientUnits="userSpaceOnUse" x1="43.5767" y1="255.7103" x2="457.5735" y2="255.7103">
		<stop  offset="0" style="stop-color:#C26CA9"/>
		<stop  offset="1" style="stop-color:#336AB2"/>
	</linearGradient>
	<path style="fill:url(#SVGID_00000172426569204190105990000008828933039184476339_);" d="M87.39,186.93
		c13.49-78.78,82.09-137.53,162.83-137.72c82.9-0.19,150.87,60.78,163.5,137.31c5.27,0.36,10.62,0.25,15.8,1.16
		c15.88,2.81,27.7,16.53,27.87,32.61c0.24,23.66,0.28,47.33-0.01,70.99c-0.23,18.14-15.27,32.77-33.5,33.26
		c-3.29,0.09-6.58,0.01-9.35,0.01c-3.43,11.17-5.79,22.34-10.19,32.63c-26.4,61.73-73,96.84-140.06,104.38
		c-3.99,0.45-8.02,0.58-12.04,0.64c-9.06,0.14-15.42-5.57-15.44-13.69c-0.02-8,6.07-13.68,14.94-13.8
		c24.65-0.34,47.88-6.24,68.83-19.19c43.12-26.65,66.22-65.49,67.75-116.2c0.88-29.09,0.46-58.22,0.1-87.33
		c-0.86-69.86-55.45-128.37-125.21-134.57c-74.33-6.61-140.4,46.43-149.49,120.11c-0.77,6.24-1,12.58-1.03,18.88
		c-0.1,30.69-0.04,61.38-0.05,92.07c0,10.87-5.23,16.17-16.11,16.07c-8.32-0.08-16.76,0.39-24.92-0.86
		c-15.91-2.43-27.7-16.48-27.85-32.54c-0.22-23.66-0.27-47.33,0.02-70.99c0.22-17.94,15.15-32.62,33.1-33.21
		C80.31,186.83,83.74,186.93,87.39,186.93z"/>
</g>
</svg>
