<svg id="Capa_1" data-name="Capa 1" xmlns="http://www.w3.org/2000/svg" viewBox="0 0 51 50"><defs><style>.cls-1{fill:#2d2d5e;}.cls-2{fill:#2e2e5f;}</style></defs><path class="cls-1" d="M17.52,19C12.39,19,8,19,3.57,19.07,2,19.1,1.28,18.65,1.46,17c.11-1,0-2.1,0-3.16C1.59,10.72,3,9.39,6.15,9.28a9.75,9.75,0,0,1,1.43,0c2.47.27,4.21.06,3.78-3.31-.29-2.3,1.26-3.8,3.66-3.87C19,2,22.88,2,26.8,2.06c2.63.07,4.22,1.58,3.88,4.25s.95,3.26,3.24,3a12,12,0,0,1,2.87,0,5,5,0,0,1,3.7,6.84c-.27.55-2.31,1.3-3.74,1.3C29.51,17.45,23.48,18.61,17.52,19ZM21,9.27h4c.92,0,1-.62,1-1.35s-.4-1-1.06-1c-2.57,0-5.14,0-7.71,0-.85,0-1.15.37-1.14,1.21s.39,1.18,1.2,1.17C18.53,9.26,19.76,9.27,21,9.27Z"/><path class="cls-1" d="M39.29,41A10.6,10.6,0,0,1,28.47,30a10.93,10.93,0,1,1,21.86.22A10.62,10.62,0,0,1,39.29,41ZM41,31.4c1,0,1.63,0,2.29,0,.81-.06,1.14-.55,1.09-1.35,0-.63-.29-1.27-.94-1.17-3,.45-2.79-1.53-2.72-3.46,0-.58-.07-1.2-.82-1.27-.54-.06-1.37-.26-1.53.34a13.49,13.49,0,0,0-.08,6.19C38.59,32,40.26,31.2,41,31.4Z"/><path class="cls-2" d="M27.06,36.29c-7.34,0-14.53.05-21.72,0a3.61,3.61,0,0,1-3.83-3.82c-.11-3.07,0-6.14-.05-9.21,0-1.23.41-1.71,1.66-1.69,3.75.05,7.49.07,11.23,0,1.43,0,2,.58,1.74,1.88-.44,2.69.88,3.45,3.28,3.07a2.8,2.8,0,0,1,.29,0c2,0,4.44-.65,5.92.25S25.47,30.19,26,32C26.36,33.28,26.64,34.59,27.06,36.29Z"/></svg>