<svg id="Capa_1" data-name="Capa 1" xmlns="http://www.w3.org/2000/svg" xmlns:xlink="http://www.w3.org/1999/xlink" viewBox="0 0 50 50"><defs><style>.cls-1{fill:url(#Degradado_sin_nombre_5);}.cls-2{fill:url(#Degradado_sin_nombre_5-2);}.cls-3{fill:url(#Degradado_sin_nombre_5-3);}</style><linearGradient id="Degradado_sin_nombre_5" x1="9" y1="25.74" x2="43.54" y2="25.74" gradientUnits="userSpaceOnUse"><stop offset="0" stop-color="#c26ca9"/><stop offset="1" stop-color="#336ab2"/></linearGradient><linearGradient id="Degradado_sin_nombre_5-2" x1="18.84" y1="25.74" x2="33.69" y2="25.74" xlink:href="#Degradado_sin_nombre_5"/><linearGradient id="Degradado_sin_nombre_5-3" x1="35.47" y1="15.71" x2="37.13" y2="15.71" xlink:href="#Degradado_sin_nombre_5"/></defs><path class="cls-1" d="M9,34.23v-17l.06-.33a16.11,16.11,0,0,1,.4-1.83,9.42,9.42,0,0,1,9.05-6.6c5.17,0,10.34,0,15.51,0a9.05,9.05,0,0,1,4.61,1.18,9.29,9.29,0,0,1,4.89,8.43c0,5.1,0,10.2,0,15.3a9.49,9.49,0,0,1-7.21,9.33,15.68,15.68,0,0,1-1.55.28h-17c-.36-.06-.71-.09-1.06-.17a9.37,9.37,0,0,1-7.43-7A15.68,15.68,0,0,1,9,34.23Zm17.26,1a9.46,9.46,0,1,0-9.46-9.48A9.48,9.48,0,0,0,26.26,35.2Zm10-22.37a2.88,2.88,0,1,0,2.87,2.88A2.89,2.89,0,0,0,36.3,12.83Z"/><path class="cls-2" d="M26.27,18.32a7.42,7.42,0,1,1-7.43,7.39A7.42,7.42,0,0,1,26.27,18.32Z"/><path class="cls-3" d="M37.13,15.7a.85.85,0,0,1-.83.84.87.87,0,0,1-.83-.85.85.85,0,0,1,.82-.82A.84.84,0,0,1,37.13,15.7Z"/></svg>