<svg id="Capa_1" data-name="Capa 1" xmlns="http://www.w3.org/2000/svg" viewBox="0 0 50 50"><defs><style>.cls-1{fill:#ea7b1f;}</style></defs><path class="cls-1" d="M33.8,38H17l-.07,0a2.41,2.41,0,0,1-2-2.56q0-10.38,0-20.76a3.12,3.12,0,0,1,.06-.75c.48-1.79,1.95-2.07,3.44-1.86,0,.29,0,.59,0,.88a2.81,2.81,0,0,0,.06.65,2.14,2.14,0,0,0,2.15,1.66h9.47a2.17,2.17,0,0,0,2.34-2.35V12h1.06a2.41,2.41,0,0,1,2.44,2.45q0,10.52,0,21a2.41,2.41,0,0,1-2,2.5Zm-5.26-7.13H25.76a.83.83,0,0,0-.92.81.82.82,0,0,0,.91.81h5.56a.82.82,0,0,0,.92-.8.84.84,0,0,0-.91-.82Zm0-9.17h2.75a.83.83,0,0,0,.92-.81.81.81,0,0,0-.91-.81H25.76a.82.82,0,1,0,0,1.62Zm0,5.4h2.76a.81.81,0,1,0,0-1.61c-1.84,0-3.69,0-5.53,0a.81.81,0,1,0,0,1.61Zm-8.21-.72c-.15-.16-.27-.32-.42-.45a.82.82,0,0,0-1.14,0,.81.81,0,0,0,0,1.14c.33.35.67.69,1,1a.78.78,0,0,0,1.16,0c.81-.8,1.62-1.61,2.42-2.42a.78.78,0,0,0,.23-.74.77.77,0,0,0-.55-.6.78.78,0,0,0-.82.2Zm0,5.4c-.15-.17-.28-.33-.42-.46a.81.81,0,0,0-1.14,0,.8.8,0,0,0,0,1.14c.33.34.66.68,1,1a.8.8,0,0,0,1.16,0L23.35,31a.77.77,0,0,0,.22-.72.81.81,0,0,0-1.38-.41Zm0-11.2c-.15-.17-.27-.33-.41-.47a.81.81,0,0,0-1.15,1.14c.33.34.67.68,1,1a.79.79,0,0,0,1.16,0c.81-.8,1.62-1.61,2.42-2.42a.78.78,0,0,0,.23-.74.75.75,0,0,0-.56-.6.78.78,0,0,0-.83.22C21.57,19.31,21,19.92,20.31,20.58Z"/><path class="cls-1" d="M25.4,13.6H20.68c-.49,0-.69-.19-.69-.68V11c0-.48.2-.67.68-.67h9.44c.48,0,.67.18.67.67v1.91c0,.47-.19.66-.66.66Z"/></svg>