<svg id="Capa_1" data-name="Capa 1" xmlns="http://www.w3.org/2000/svg" viewBox="0 0 500 500"><defs><style>.cls-1{fill:#1c244b;}</style></defs><path class="cls-1" d="M253.64,178.29q5.57,10.61,11.13,21.22,25.39,48.54,50.83,97.05a10.11,10.11,0,0,1,.46,9.61c-7.59,18-14.85,36.16-22.35,54.21a4.12,4.12,0,0,0,.71,4.95c5.49,6.77,5.16,15.32-.37,22a7,7,0,0,0-1.4,4.06c-.11,9.55,0,19.1-.07,28.66,0,11-7,17.86-17.95,17.88q-27.44.06-54.86,0C209,438,202,431,202,420.27c-.05-9.79,0-19.58-.07-29.37a7.28,7.28,0,0,0-1.33-4.09c-5.56-7.18-5.57-15.63-.07-22.82a4.71,4.71,0,0,0,.29-3.92c-7.23-17.78-14.51-35.54-22-53.21a11.6,11.6,0,0,1,.48-11q30.19-57.19,60.07-114.55a8.63,8.63,0,0,1,2.27-3v2.94c0,28.19,0,56.39.06,84.58,0,2.48-.73,3.57-3.06,4.55A22.93,22.93,0,0,0,225,295.76,23.28,23.28,0,0,0,247.3,314c11.1.13,19.81-6.95,22.19-18a22.51,22.51,0,0,0-13.28-25.43c-2.68-1.14-3.33-2.42-3.32-5.12.1-28,.06-55.91.06-83.87v-3.14Zm-6,191.75c-11.31,0-22.62,0-33.93,0-3.81,0-6,2.06-6.06,5.43a5.29,5.29,0,0,0,5.67,5.82q33.93.1,67.86,0a5.23,5.23,0,0,0,5.6-4.39c.89-4-1.7-6.87-6.26-6.89C269.57,370,258.61,370,247.65,370Z"/><path class="cls-1" d="M113.3,252.18c18.08,7.46,19.18,29.07,5.49,39.46-7.63,5.79-16,6.12-24.23,1.49-8.1-4.52-12.43-11.57-11.67-21,.79-9.65,5.78-16.67,15-20,3-1.06,4-2.36,4.67-5.42Q118.32,171.54,188.09,139c.32-.15.61-.36,1.44-.85H117c0,1.89.1,3.75,0,5.6-.22,3.32-2.07,5.31-5.39,5.36q-11.5.19-23,0c-3.49,0-5.45-2.08-5.49-5.62q-.16-11.31,0-22.65c.06-3.78,2.14-5.59,6.21-5.63q10.62-.09,21.24,0c4.55,0,6.38,1.91,6.48,6.48,0,1.5,0,3,0,4.66H225c.16-.34.36-.74.52-1.15,3.68-9.63,11.52-15.48,21-15.67,9.28-.19,17.42,5.31,21.33,14.66a3.27,3.27,0,0,0,3.61,2.37q51.86-.09,103.71,0c.68,0,1.36-.07,2.38-.13,0-2.06-.1-3.92,0-5.77.22-3.33,2.06-5.3,5.39-5.36q11.5-.18,23,0c3.48,0,5.44,2.07,5.49,5.61q.16,11.33,0,22.65c-.05,3.53-2,5.55-5.52,5.6-7.55.13-15.1.12-22.65,0-3.72-.05-5.57-2-5.74-5.76-.08-1.65,0-3.3,0-5.24H304.9c2.88,1.37,5.21,2.38,7.46,3.55,43.84,22.65,70.31,58.35,79.84,106.64.54,2.74,1.72,3.55,4.06,4.3,10.54,3.4,16.62,13.13,15.34,24.14a22.54,22.54,0,0,1-20,19.81,22.94,22.94,0,0,1-24.24-16c-3.06-10.13,1.3-20.82,11-26.15,2.39-1.31,3.06-2.53,2.59-5.17-9.77-54.76-53.43-98.75-108.35-109.07-2.38-.45-3.88-.36-5.22,2.33-4,8.07-10.91,12.34-19.93,12.29s-15.85-4.31-19.86-12.42c-1.14-2.31-2.32-2.69-4.58-2.32-54,8.81-100.22,54.7-109.42,108.79C113.44,249.88,113.41,250.94,113.3,252.18Z"/><path class="cls-1" d="M247.81,279.45A11.32,11.32,0,1,1,236,290.14,11.44,11.44,0,0,1,247.81,279.45Z"/></svg>