<?xml version="1.0" encoding="utf-8"?>
<!-- Generator: Adobe Illustrator 26.0.2, SVG Export Plug-In . SVG Version: 6.00 Build 0)  -->
<svg version="1.1" id="Capa_1" xmlns="http://www.w3.org/2000/svg" xmlns:xlink="http://www.w3.org/1999/xlink" x="0px" y="0px"
	 viewBox="0 0 500 500" style="enable-background:new 0 0 500 500;" xml:space="preserve">
<style type="text/css">
	.st0{fill:url(#SVGID_1_);}
	.st1{fill:url(#SVGID_00000041261033640725292700000013850432990701274505_);}
	.st2{fill:url(#SVGID_00000177445157181544727670000014913444108301600391_);}
	.st3{fill:url(#SVGID_00000023275819636230746540000009929105164990455485_);}
	.st4{fill:url(#SVGID_00000060718462436519381420000002669001925571876252_);}
	.st5{fill:url(#SVGID_00000006682878002283376740000015111589167851355325_);}
	.st6{fill:url(#SVGID_00000116234773366465313690000002778173839260325042_);}
	.st7{fill:url(#SVGID_00000057118134680286771540000003801204416465673620_);}
	.st8{fill:#FDFEFF;}
	.st9{fill:#EA7B1F;}
	.st10{fill:#FFFFFF;}
</style>
<g>
	<linearGradient id="SVGID_1_" gradientUnits="userSpaceOnUse" x1="28.7127" y1="244.0274" x2="472" y2="244.0274">
		<stop  offset="0" style="stop-color:#C26CA9"/>
		<stop  offset="1" style="stop-color:#336AB2"/>
	</linearGradient>
	<path class="st0" d="M28.71,380.89c0-32.63,0-65.25,0-97.88c22.31-0.73,38.97-17.4,38.97-38.98c0-21.59-16.67-38.25-38.97-38.97
		c0-32.63,0-65.25,0-97.88c31.11,0,62.22,0,93.55,0c0,12.3-0.06,23.97,0.02,35.65c0.04,5.87,3.89,9.7,9.38,9.63
		c5.25-0.06,8.72-3.81,8.77-9.71c0.07-9.24,0.02-18.48,0.02-27.71c0-2.54,0-5.08,0-7.53c110.91,0,221.24,0,331.55,0
		c0,32.62,0,64.91,0,97.17c-24.73,4.02-38.62,18.02-38.75,38.96c-0.06,9.44,2.84,17.91,8.85,25.18
		c7.69,9.31,17.87,13.72,29.83,14.34c0,32.66,0,65.05,0,97.46c-110.62,0-220.97,0-331.29,0c-0.51-7.72-3.48-11.5-9.04-11.76
		c-5.21-0.24-8.32,3.46-9.9,12.04C90.74,380.89,59.72,380.89,28.71,380.89z M140.45,215.39c0-5.76,0.05-11.53-0.01-17.29
		c-0.07-6.03-3.43-9.77-8.62-9.74c-5.04,0.03-9.49,4.44-9.53,9.75c-0.08,11.67-0.09,23.34,0.01,35.01c0.04,5.62,3.82,9.37,9.11,9.43
		c5.28,0.06,8.92-3.66,9.01-9.43C140.52,227.2,140.45,221.3,140.45,215.39z M140.45,305.86c0-5.92,0.07-11.84-0.02-17.75
		c-0.08-5.39-4.11-9.37-9.26-9.35c-4.73,0.02-8.84,4.19-8.88,9.34c-0.09,11.69-0.09,23.38,0,35.07c0.04,5.64,3.81,9.4,9.11,9.47
		c5.29,0.06,8.93-3.66,9.02-9.45C140.52,317.4,140.45,311.63,140.45,305.86z"/>
</g>
</svg>
