<?xml version="1.0" encoding="utf-8"?>
<!-- Generator: Adobe Illustrator 26.0.2, SVG Export Plug-In . SVG Version: 6.00 Build 0)  -->
<svg version="1.1" id="Capa_1" xmlns="http://www.w3.org/2000/svg" xmlns:xlink="http://www.w3.org/1999/xlink" x="0px" y="0px"
	 viewBox="0 0 402.52 160.14" style="enable-background:new 0 0 402.52 160.14;" xml:space="preserve">
<style type="text/css">
	.st0{fill:#C26CA9;}
	.st1{fill:#376AB1;}
	.st2{fill:#1A4272;}
	.st3{fill:#28285B;}
	.st4{fill:#EA7B1F;}
</style>
<path class="st0" d="M221.97,21.82c1.72,1.26,13.39,22.45,13.39,22.45L225.72,68c0,0-4.79-2.65-6.17-5.63
	c-1.37-2.98-6.94-17.14-7.07-17.46C212.72,44.11,221.97,21.82,221.97,21.82z"/>
<g>
	<g>
		<g>
			<path class="st1" d="M59.46,125.55v-23.58h2.5c4.6,5.94,14.81,18.81,16.07,21.04h0.07c-0.2-3.38-0.17-6.74-0.17-10.54v-10.5h1.99
				v23.58h-2.4c-4.18-5.34-14.33-18.59-16.17-21.36h-0.07c0.17,3.1,0.17,6.44,0.17,10.6v10.76H59.46z"/>
			<path class="st1" d="M113.48,114.02H98.82v9.65h16.12l-0.34,1.88H96.76v-23.58h17.48v1.88H98.82v8.3h14.66V114.02z"/>
			<path class="st1" d="M131.69,114.82v10.73h-2.06v-23.58h10.42c4.51,0,7.81,1.96,7.81,6.22c0,2.75-1.23,4.89-4.42,5.65
				c1.86,0.46,3.79,1.77,3.79,5.84v0.96c0,1.91,0,3.98,0.27,4.91h-2.1c-0.33-1.02-0.24-3.03-0.24-4.73v-0.79
				c0-4.06-1.6-5.21-6.1-5.21H131.69z M131.69,112.92h7.75c4.16,0,6.29-1.44,6.29-4.69c0-2.95-2.13-4.36-6.13-4.36h-7.92V112.92z"/>
			<path class="st1" d="M163.68,101.97h9.18c7.44,0,11.93,4.86,11.93,11.43c0,7.56-5.19,12.15-11.97,12.15h-9.15V101.97z
				 M165.75,123.67h6.45c7.11,0,10.4-4.61,10.4-10.21c0-6.04-4.19-9.62-10.04-9.62h-6.81V123.67z"/>
			<path class="st1" d="M200.58,118.8c0.95,3.15,3.18,5.4,8.21,5.4c5.15,0,7.31-2.16,7.31-4.71c0-2.68-1.41-4.38-8.08-5.5
				c-6.51-1.1-8.32-3.09-8.32-6.33c0-3.85,3.62-6.2,8.52-6.2c7.44,0,9.04,3.93,9.31,6.13h-2.13c-0.56-1.83-1.67-4.26-7.22-4.26
				c-3.74,0-6.36,1.31-6.36,4.12c0,2.23,0.96,3.73,6.81,4.68c8.27,1.36,9.63,3.97,9.63,7.15c0,3.58-2.88,6.75-9.55,6.75
				c-6.17,0-9.5-2.85-10.3-7.24H200.58z"/>
			<path class="st2" d="M237.02,125.55l-6.62-23.27h5.92c1.37,5.37,3.71,13.99,4.23,18.19h0.03c0.76-4.29,3.16-12.78,4.74-18.19
				h5.38c1.46,5.12,4.05,14.61,4.68,18.01h0.06c0.68-4.24,2.95-12.8,4.3-18.01h5.68l-7.03,23.27h-6.11
				c-1.49-5.13-3.87-13.99-4.62-17.33h-0.03c-0.7,3.96-2.89,11.63-4.54,17.33H237.02z"/>
			<path class="st2" d="M297.31,115.73h-12.99v5.3h14.44l-0.65,4.52h-19.43v-23.27h19.33v4.52h-13.69v4.41h12.99V115.73z"/>
			<path class="st2" d="M312.84,102.28h12.88c5.57,0,7.99,2.71,7.99,5.99c0,2.69-1.68,4.3-3.47,4.96c2.25,0.7,4.32,2.44,4.32,5.39
				c0,4.37-3.35,6.93-9.05,6.93h-12.67V102.28z M324.54,111.39c2.53,0,3.33-1,3.33-2.41c0-1.75-1.33-2.47-3.28-2.47h-6.19v4.88
				H324.54z M318.4,121.35h6.38c2.17,0,3.83-0.64,3.83-2.94c0-1.86-1.26-2.81-3.72-2.81h-6.49V121.35z"/>
		</g>
	</g>
	<path class="st3" d="M177.95,22.1c0,0-14.21,39.87-18.44,43.65c-4.24,3.78-7.9,6.99-13.63,6.07c-5.73-0.92-8.25-3.09-8.25-3.09
		l17.53-43.42c0,0,3.67-6.32,9.51-6.48C170.5,18.67,177.95,22.1,177.95,22.1z"/>
	<path class="st1" d="M266.04,21.38c0,0-14.21,39.87-18.44,43.65c-4.24,3.78-10.77,6.49-13.63,6.07c-5.74-0.83-8.25-3.09-8.25-3.09
		l17.53-43.42c0,0,3.67-6.32,9.51-6.48C258.59,17.94,266.04,21.38,266.04,21.38z"/>
	<path class="st4" d="M177.95,22.1c1.54,1.35,13.37,22.34,13.37,22.34l-9.79,23.94c0,0-4.81-3.04-6.18-6.01
		c-1.37-2.98-6.19-16.33-6.54-16.05S177.95,22.1,177.95,22.1z"/>
	<path class="st3" d="M181.53,68.39c0,0,15.58-39.12,18.33-42.5c1.84-2.26,6.13-8.25,14.32-6.59c6.36,1.28,7.79,2.53,7.79,2.53
		L206.72,58.9c0,0-4.74,10.35-10.35,12.24C188.33,73.84,181.53,68.39,181.53,68.39z"/>
</g>
</svg>
