<svg id="Capa_1" data-name="Capa 1" xmlns="http://www.w3.org/2000/svg" viewBox="0 0 402.52 160.14"><defs><style>.cls-1{fill:#c26ca9;}.cls-2{fill:#28285b;}.cls-3{fill:#376ab1;}.cls-4{fill:#ea7b1f;}</style></defs><path class="cls-1" d="M243.74,35.38c3.36,2.47,26.2,43.95,26.2,43.95l-18.88,46.46s-9.38-5.19-12.07-11S225.4,81.21,225.14,80.59C225.62,79,243.74,35.38,243.74,35.38Z"/><path class="cls-2" d="M157.56,35.94s-27.81,78-36.1,85.44S106,135.06,94.77,133.26s-16.15-6-16.15-6l34.32-85s7.17-12.38,18.61-12.69S157.56,35.94,157.56,35.94Z"/><path class="cls-3" d="M330,34.52s-27.81,78-36.1,85.44-21.1,12.69-26.69,11.88c-11.24-1.62-16.15-6-16.15-6l34.31-85S292.55,28.42,304,28.11,330,34.52,330,34.52Z"/><path class="cls-4" d="M157.56,35.94c3,2.64,26.17,43.73,26.17,43.73l-19.16,46.87s-9.41-5.94-12.1-11.77-12.13-32-12.8-31.41S157.56,35.94,157.56,35.94Z"/><path class="cls-2" d="M164.57,126.54S195.07,50,200.45,43.35c3.6-4.42,12-16.15,28.05-12.91,12.44,2.52,15.24,4.94,15.24,4.94L213.88,108s-9.28,20.26-20.26,24C177.89,137.22,164.57,126.54,164.57,126.54Z"/></svg>